<svg width="200" height="200" viewBox="0 0 200 200" fill="none" xmlns="http://www.w3.org/2000/svg">
<path d="M-449.399 179.52H-545.399C-562.389 179.52 -563.889 149.016 -539.399 150.52C-522.471 134.311 -517.813 124.486 -518.399 106.52C-534.631 95.0501 -539.552 86.2097 -539.399 65.5234C-539.229 42.5234 -521.389 25.5234 -498.399 25.5234C-477.399 25.5156 -454.399 41.5156 -454.399 65.5234C-455.717 88.2065 -464.389 99.5156 -477.399 106.516C-473.917 126.024 -469.438 135.834 -456.399 150.52C-432.389 148.516 -431.89 179.52 -449.399 179.52Z" fill="black"/>
<path d="M-338.389 150.52V106.516C-357.356 107.505 -362.678 103.9 -363.889 91.5156V37.5156C-361.346 32.382 -359.434 30.314 -354.889 28.5156H-335.389C-329.902 31.3314 -328.289 33.3424 -327.389 37.5156V55.0156H-320.389V37.5156C-319.062 32.5027 -317.03 30.5693 -311.389 28.5156H-294.889C-288.557 29.947 -285.835 31.7485 -282.389 37.5156V55.0156H-275.389V37.5156C-273.466 31.915 -271.186 30.1838 -265.889 28.5156H-248.889C-243.027 29.5855 -240.447 31.2897 -237.889 37.5156V91.5156C-237.915 103.669 -243.813 106.525 -263.389 106.52V150.52C-237.889 146.016 -235.389 179.52 -253.389 179.52H-348.889C-363.889 179.52 -366.389 146.016 -338.389 150.52Z" fill="black"/>
<path d="M-40.3887 179.52H-146.889C-158.389 181.008 -163.889 150.52 -139.389 150.52L-100.389 98.0078L-123.889 111.508C-146.889 117.008 -159.389 108.008 -153.889 84.5078L-130.389 50.5078C-128.326 47.6409 -128.436 45.3966 -130.389 40.5078L-132.889 32.5078C-133.944 28.1769 -132.926 26.754 -128.889 25.5156H-84.8887C-36.9933 41.277 -28.5723 67.6405 -43.3887 150.52C-30.3887 152.508 -27.8887 176.508 -40.3887 179.52Z" fill="black"/>
<path d="M149.111 179.52H49.1113C34.6113 177 37.6113 147.5 58.1113 150.52C56.6113 135 26.6113 118.5 83.6113 61.5078C78.4941 53.8588 77.4792 49.251 78.1113 40.5C78.942 29 90.1113 21 99.6113 21C111.525 21.9723 121.611 28 123.111 40.5C123.183 50.7012 122.047 55.5214 117.111 61.5078C122.923 65.7905 127.585 72.1554 132.611 79.5078L101.611 113.008L103.611 115.508L135.611 83.0078C156.611 103 154.111 139.5 140.111 150.52C161.111 144.5 168.611 179.52 149.111 179.52Z" fill="black"/>
<path d="M349.111 179.52H249.111C231.111 177.5 234.611 146 259.111 150.52C247.646 143.645 240.611 138.5 237.111 71.5C221.216 62.0884 216.611 49.5 228.611 39C239.611 32.5 258.611 43 253.111 58L266.111 73.5L269.111 53C256.111 40.5 264.979 24.5 278.111 24.5C291.244 24.5 301.111 37 291.611 53L299.111 71.5L308.111 49.5C296.111 31.5 311.2 22.4351 321.111 24.5C333.111 27 340.111 43.5 328.611 53L333.111 68.5L345.611 57C343.111 39 356.111 33 369.111 40.5C378.111 47.5 378.305 61.1457 362.111 69.5C359.111 129 353.627 145.625 339.611 150.52C358.611 147 369.111 174.5 349.111 179.52Z" fill="black"/>
<path d="M555.111 179.52H455.111C440.111 177.5 439.111 155 455.111 151.5C405.611 110 432.611 49.5 476.611 61L488.611 64.5L495.111 61V51.5H483.611V38H495.111V21.5H514.111V38H527.111V53H514.111V61L521.611 64.5L533.111 60C588.611 57 601.611 117 555.111 151.5C570.611 151.5 570.611 179.52 555.111 179.52Z" fill="black"/>
<path d="M-449.399 179.52H-545.399C-562.389 179.52 -563.889 149.016 -539.399 150.52C-522.471 134.311 -517.813 124.486 -518.399 106.52C-534.631 95.0501 -539.552 86.2097 -539.399 65.5234C-539.229 42.5234 -521.389 25.5234 -498.399 25.5234C-477.399 25.5156 -454.399 41.5156 -454.399 65.5234C-455.717 88.2065 -464.389 99.5156 -477.399 106.516C-473.917 126.024 -469.438 135.834 -456.399 150.52C-432.389 148.516 -431.89 179.52 -449.399 179.52Z" stroke="white" stroke-width="5"/>
<path d="M-338.389 150.52V106.516C-357.356 107.505 -362.678 103.9 -363.889 91.5156V37.5156C-361.346 32.382 -359.434 30.314 -354.889 28.5156H-335.389C-329.902 31.3314 -328.289 33.3424 -327.389 37.5156V55.0156H-320.389V37.5156C-319.062 32.5027 -317.03 30.5693 -311.389 28.5156H-294.889C-288.557 29.947 -285.835 31.7485 -282.389 37.5156V55.0156H-275.389V37.5156C-273.466 31.915 -271.186 30.1838 -265.889 28.5156H-248.889C-243.027 29.5855 -240.447 31.2897 -237.889 37.5156V91.5156C-237.915 103.669 -243.813 106.525 -263.389 106.52V150.52C-237.889 146.016 -235.389 179.52 -253.389 179.52H-348.889C-363.889 179.52 -366.389 146.016 -338.389 150.52Z" stroke="white" stroke-width="5"/>
<path d="M-40.3887 179.52H-146.889C-158.389 181.008 -163.889 150.52 -139.389 150.52L-100.389 98.0078L-123.889 111.508C-146.889 117.008 -159.389 108.008 -153.889 84.5078L-130.389 50.5078C-128.326 47.6409 -128.436 45.3966 -130.389 40.5078L-132.889 32.5078C-133.944 28.1769 -132.926 26.754 -128.889 25.5156H-84.8887C-36.9933 41.277 -28.5723 67.6405 -43.3887 150.52C-30.3887 152.508 -27.8887 176.508 -40.3887 179.52Z" stroke="white" stroke-width="5"/>
<path d="M149.111 179.52H49.1113C34.6113 177 37.6113 147.5 58.1113 150.52C56.6113 135 26.6113 118.5 83.6113 61.5078C78.4941 53.8588 77.4792 49.251 78.1113 40.5C78.942 29 90.1113 21 99.6113 21C111.525 21.9723 121.611 28 123.111 40.5C123.183 50.7012 122.047 55.5214 117.111 61.5078C122.923 65.7905 127.585 72.1554 132.611 79.5078L101.611 113.008L103.611 115.508L135.611 83.0078C156.611 103 154.111 139.5 140.111 150.52C161.111 144.5 168.611 179.52 149.111 179.52Z" stroke="white" stroke-width="5"/>
<path d="M349.111 179.52H249.111C231.111 177.5 234.611 146 259.111 150.52C247.646 143.645 240.611 138.5 237.111 71.5C221.216 62.0884 216.611 49.5 228.611 39C239.611 32.5 258.611 43 253.111 58L266.111 73.5L269.111 53C256.111 40.5 264.979 24.5 278.111 24.5C291.244 24.5 301.111 37 291.611 53L299.111 71.5L308.111 49.5C296.111 31.5 311.2 22.4351 321.111 24.5C333.111 27 340.111 43.5 328.611 53L333.111 68.5L345.611 57C343.111 39 356.111 33 369.111 40.5C378.111 47.5 378.305 61.1457 362.111 69.5C359.111 129 353.627 145.625 339.611 150.52C358.611 147 369.111 174.5 349.111 179.52Z" stroke="white" stroke-width="5"/>
<path d="M555.111 179.52H455.111C440.111 177.5 439.111 155 455.111 151.5C405.611 110 432.611 49.5 476.611 61L488.611 64.5L495.111 61V51.5H483.611V38H495.111V21.5H514.111V38H527.111V53H514.111V61L521.611 64.5L533.111 60C588.611 57 601.611 117 555.111 151.5C570.611 151.5 570.611 179.52 555.111 179.52Z" stroke="white" stroke-width="5"/>
</svg>
