<svg width="200" height="200" viewBox="0 0 200 200" fill="none" xmlns="http://www.w3.org/2000/svg">
<path d="M-849.399 179.52H-945.399C-962.389 179.52 -963.889 149.016 -939.399 150.52C-922.471 134.311 -917.813 124.486 -918.399 106.52C-934.631 95.0501 -939.552 86.2097 -939.399 65.5234C-939.229 42.5234 -921.389 25.5234 -898.399 25.5234C-877.399 25.5156 -854.399 41.5156 -854.399 65.5234C-855.717 88.2065 -864.389 99.5156 -877.399 106.516C-873.917 126.024 -869.438 135.834 -856.399 150.52C-832.389 148.516 -831.89 179.52 -849.399 179.52Z" fill="black"/>
<path d="M-738.389 150.52V106.516C-757.356 107.505 -762.678 103.9 -763.889 91.5156V37.5156C-761.346 32.382 -759.434 30.314 -754.889 28.5156H-735.389C-729.902 31.3314 -728.289 33.3424 -727.389 37.5156V55.0156H-720.389V37.5156C-719.062 32.5027 -717.03 30.5693 -711.389 28.5156H-694.889C-688.557 29.947 -685.835 31.7485 -682.389 37.5156V55.0156H-675.389V37.5156C-673.466 31.915 -671.186 30.1838 -665.889 28.5156H-648.889C-643.027 29.5855 -640.447 31.2897 -637.889 37.5156V91.5156C-637.915 103.669 -643.813 106.525 -663.389 106.52V150.52C-637.889 146.016 -635.389 179.52 -653.389 179.52H-748.889C-763.889 179.52 -766.389 146.016 -738.389 150.52Z" fill="black"/>
<path d="M-440.389 179.52H-546.889C-558.389 181.008 -563.889 150.52 -539.389 150.52L-500.389 98.0078L-523.889 111.508C-546.889 117.008 -559.389 108.008 -553.889 84.5078L-530.389 50.5078C-528.326 47.6409 -528.436 45.3966 -530.389 40.5078L-532.889 32.5078C-533.944 28.1769 -532.926 26.754 -528.889 25.5156H-484.889C-436.993 41.277 -428.572 67.6405 -443.389 150.52C-430.389 152.508 -427.889 176.508 -440.389 179.52Z" fill="black"/>
<path d="M-250.889 179.52H-350.889C-365.389 177 -362.389 147.5 -341.889 150.52C-343.389 135 -373.389 118.5 -316.389 61.5078C-321.506 53.8588 -322.521 49.251 -321.889 40.5C-321.058 29 -309.889 21 -300.389 21C-288.475 21.9723 -278.389 28 -276.889 40.5C-276.817 50.7012 -277.953 55.5214 -282.889 61.5078C-277.077 65.7905 -272.415 72.1554 -267.389 79.5078L-298.389 113.008L-296.389 115.508L-264.389 83.0078C-243.389 103 -245.889 139.5 -259.889 150.52C-238.889 144.5 -231.389 179.52 -250.889 179.52Z" fill="black"/>
<path d="M-50.8887 179.52H-150.889C-168.889 177.5 -165.389 146 -140.889 150.52C-152.354 143.645 -159.389 138.5 -162.889 71.5C-178.784 62.0884 -183.389 49.5 -171.389 39C-160.389 32.5 -141.389 43 -146.889 58L-133.889 73.5L-130.889 53C-143.889 40.5 -135.021 24.5 -121.889 24.5C-108.756 24.5 -98.8887 37 -108.389 53L-100.889 71.5L-91.8887 49.5C-103.889 31.5 -88.8001 22.4351 -78.8887 24.5C-66.8887 27 -59.8887 43.5 -71.3887 53L-66.8887 68.5L-54.3887 57C-56.8887 39 -43.8887 33 -30.8887 40.5C-21.8887 47.5 -21.6951 61.1457 -37.8887 69.5C-40.8887 129 -46.373 145.625 -60.3887 150.52C-41.3887 147 -30.8887 174.5 -50.8887 179.52Z" fill="black"/>
<path d="M155.111 179.52H55.1113C40.1113 177.5 39.1113 155 55.1113 151.5C5.61133 110 32.6113 49.5 76.6113 61L88.6113 64.5L95.1113 61V51.5H83.6113V38H95.1113V21.5H114.111V38H127.111V53H114.111V61L121.611 64.5L133.111 60C188.611 57 201.611 117 155.111 151.5C170.611 151.5 170.611 179.52 155.111 179.52Z" fill="black"/>
<path d="M-849.399 179.52H-945.399C-962.389 179.52 -963.889 149.016 -939.399 150.52C-922.471 134.311 -917.813 124.486 -918.399 106.52C-934.631 95.0501 -939.552 86.2097 -939.399 65.5234C-939.229 42.5234 -921.389 25.5234 -898.399 25.5234C-877.399 25.5156 -854.399 41.5156 -854.399 65.5234C-855.717 88.2065 -864.389 99.5156 -877.399 106.516C-873.917 126.024 -869.438 135.834 -856.399 150.52C-832.389 148.516 -831.89 179.52 -849.399 179.52Z" stroke="white" stroke-width="5"/>
<path d="M-738.389 150.52V106.516C-757.356 107.505 -762.678 103.9 -763.889 91.5156V37.5156C-761.346 32.382 -759.434 30.314 -754.889 28.5156H-735.389C-729.902 31.3314 -728.289 33.3424 -727.389 37.5156V55.0156H-720.389V37.5156C-719.062 32.5027 -717.03 30.5693 -711.389 28.5156H-694.889C-688.557 29.947 -685.835 31.7485 -682.389 37.5156V55.0156H-675.389V37.5156C-673.466 31.915 -671.186 30.1838 -665.889 28.5156H-648.889C-643.027 29.5855 -640.447 31.2897 -637.889 37.5156V91.5156C-637.915 103.669 -643.813 106.525 -663.389 106.52V150.52C-637.889 146.016 -635.389 179.52 -653.389 179.52H-748.889C-763.889 179.52 -766.389 146.016 -738.389 150.52Z" stroke="white" stroke-width="5"/>
<path d="M-440.389 179.52H-546.889C-558.389 181.008 -563.889 150.52 -539.389 150.52L-500.389 98.0078L-523.889 111.508C-546.889 117.008 -559.389 108.008 -553.889 84.5078L-530.389 50.5078C-528.326 47.6409 -528.436 45.3966 -530.389 40.5078L-532.889 32.5078C-533.944 28.1769 -532.926 26.754 -528.889 25.5156H-484.889C-436.993 41.277 -428.572 67.6405 -443.389 150.52C-430.389 152.508 -427.889 176.508 -440.389 179.52Z" stroke="white" stroke-width="5"/>
<path d="M-250.889 179.52H-350.889C-365.389 177 -362.389 147.5 -341.889 150.52C-343.389 135 -373.389 118.5 -316.389 61.5078C-321.506 53.8588 -322.521 49.251 -321.889 40.5C-321.058 29 -309.889 21 -300.389 21C-288.475 21.9723 -278.389 28 -276.889 40.5C-276.817 50.7012 -277.953 55.5214 -282.889 61.5078C-277.077 65.7905 -272.415 72.1554 -267.389 79.5078L-298.389 113.008L-296.389 115.508L-264.389 83.0078C-243.389 103 -245.889 139.5 -259.889 150.52C-238.889 144.5 -231.389 179.52 -250.889 179.52Z" stroke="white" stroke-width="5"/>
<path d="M-50.8887 179.52H-150.889C-168.889 177.5 -165.389 146 -140.889 150.52C-152.354 143.645 -159.389 138.5 -162.889 71.5C-178.784 62.0884 -183.389 49.5 -171.389 39C-160.389 32.5 -141.389 43 -146.889 58L-133.889 73.5L-130.889 53C-143.889 40.5 -135.021 24.5 -121.889 24.5C-108.756 24.5 -98.8887 37 -108.389 53L-100.889 71.5L-91.8887 49.5C-103.889 31.5 -88.8001 22.4351 -78.8887 24.5C-66.8887 27 -59.8887 43.5 -71.3887 53L-66.8887 68.5L-54.3887 57C-56.8887 39 -43.8887 33 -30.8887 40.5C-21.8887 47.5 -21.6951 61.1457 -37.8887 69.5C-40.8887 129 -46.373 145.625 -60.3887 150.52C-41.3887 147 -30.8887 174.5 -50.8887 179.52Z" stroke="white" stroke-width="5"/>
<path d="M155.111 179.52H55.1113C40.1113 177.5 39.1113 155 55.1113 151.5C5.61133 110 32.6113 49.5 76.6113 61L88.6113 64.5L95.1113 61V51.5H83.6113V38H95.1113V21.5H114.111V38H127.111V53H114.111V61L121.611 64.5L133.111 60C188.611 57 201.611 117 155.111 151.5C170.611 151.5 170.611 179.52 155.111 179.52Z" stroke="white" stroke-width="5"/>
</svg>
