<svg width="200" height="200" viewBox="0 0 200 200" fill="none" xmlns="http://www.w3.org/2000/svg">
<path d="M-249.399 179.52H-345.399C-362.389 179.52 -363.889 149.016 -339.399 150.52C-322.471 134.311 -317.813 124.486 -318.399 106.52C-334.631 95.0501 -339.552 86.2097 -339.399 65.5234C-339.229 42.5234 -321.389 25.5234 -298.399 25.5234C-277.399 25.5156 -254.399 41.5156 -254.399 65.5234C-255.717 88.2065 -264.389 99.5156 -277.399 106.516C-273.917 126.024 -269.438 135.834 -256.399 150.52C-232.389 148.516 -231.89 179.52 -249.399 179.52Z" fill="black"/>
<path d="M-138.389 150.52V106.516C-157.356 107.505 -162.678 103.9 -163.889 91.5156V37.5156C-161.346 32.382 -159.434 30.314 -154.889 28.5156H-135.389C-129.902 31.3314 -128.289 33.3424 -127.389 37.5156V55.0156H-120.389V37.5156C-119.062 32.5027 -117.03 30.5693 -111.389 28.5156H-94.8894C-88.5573 29.947 -85.8355 31.7485 -82.3894 37.5156V55.0156H-75.3894V37.5156C-73.4664 31.915 -71.186 30.1838 -65.8894 28.5156H-48.8894C-43.0266 29.5855 -40.4474 31.2897 -37.8894 37.5156V91.5156C-37.9153 103.669 -43.8134 106.525 -63.3894 106.52V150.52C-37.8894 146.016 -35.3894 179.52 -53.3894 179.52H-148.889C-163.889 179.52 -166.389 146.016 -138.389 150.52Z" fill="black"/>
<path d="M159.611 179.52H53.1112C41.6113 181.008 36.1113 150.52 60.6113 150.52L99.6113 98.0078L76.1113 111.508C53.1112 117.008 40.6113 108.008 46.1113 84.5078L69.6113 50.5078C71.6741 47.6409 71.5645 45.3966 69.6113 40.5078L67.1113 32.5078C66.0557 28.1769 67.0743 26.754 71.1113 25.5156H115.111C163.007 41.277 171.428 67.6405 156.611 150.52C169.611 152.508 172.111 176.508 159.611 179.52Z" fill="black"/>
<path d="M349.111 179.52H249.111C234.611 177 237.611 147.5 258.111 150.52C256.611 135 226.611 118.5 283.611 61.5078C278.494 53.8588 277.479 49.251 278.111 40.5C278.942 29 290.111 21 299.611 21C311.525 21.9723 321.611 28 323.111 40.5C323.183 50.7012 322.047 55.5214 317.111 61.5078C322.923 65.7905 327.585 72.1554 332.611 79.5078L301.611 113.008L303.611 115.508L335.611 83.0078C356.611 103 354.111 139.5 340.111 150.52C361.111 144.5 368.611 179.52 349.111 179.52Z" fill="black"/>
<path d="M549.111 179.52H449.111C431.111 177.5 434.611 146 459.111 150.52C447.646 143.645 440.611 138.5 437.111 71.5C421.216 62.0884 416.611 49.5 428.611 39C439.611 32.5 458.611 43 453.111 58L466.111 73.5L469.111 53C456.111 40.5 464.979 24.5 478.111 24.5C491.244 24.5 501.111 37 491.611 53L499.111 71.5L508.111 49.5C496.111 31.5 511.2 22.4351 521.111 24.5C533.111 27 540.111 43.5 528.611 53L533.111 68.5L545.611 57C543.111 39 556.111 33 569.111 40.5C578.111 47.5 578.305 61.1457 562.111 69.5C559.111 129 553.627 145.625 539.611 150.52C558.611 147 569.111 174.5 549.111 179.52Z" fill="black"/>
<path d="M755.111 179.52H655.111C640.111 177.5 639.111 155 655.111 151.5C605.611 110 632.611 49.5 676.611 61L688.611 64.5L695.111 61V51.5H683.611V38H695.111V21.5H714.111V38H727.111V53H714.111V61L721.611 64.5L733.111 60C788.611 57 801.611 117 755.111 151.5C770.611 151.5 770.611 179.52 755.111 179.52Z" fill="black"/>
<path d="M-249.399 179.52H-345.399C-362.389 179.52 -363.889 149.016 -339.399 150.52C-322.471 134.311 -317.813 124.486 -318.399 106.52C-334.631 95.0501 -339.552 86.2097 -339.399 65.5234C-339.229 42.5234 -321.389 25.5234 -298.399 25.5234C-277.399 25.5156 -254.399 41.5156 -254.399 65.5234C-255.717 88.2065 -264.389 99.5156 -277.399 106.516C-273.917 126.024 -269.438 135.834 -256.399 150.52C-232.389 148.516 -231.89 179.52 -249.399 179.52Z" stroke="white" stroke-width="5"/>
<path d="M-138.389 150.52V106.516C-157.356 107.505 -162.678 103.9 -163.889 91.5156V37.5156C-161.346 32.382 -159.434 30.314 -154.889 28.5156H-135.389C-129.902 31.3314 -128.289 33.3424 -127.389 37.5156V55.0156H-120.389V37.5156C-119.062 32.5027 -117.03 30.5693 -111.389 28.5156H-94.8894C-88.5573 29.947 -85.8355 31.7485 -82.3894 37.5156V55.0156H-75.3894V37.5156C-73.4664 31.915 -71.186 30.1838 -65.8894 28.5156H-48.8894C-43.0266 29.5855 -40.4474 31.2897 -37.8894 37.5156V91.5156C-37.9153 103.669 -43.8134 106.525 -63.3894 106.52V150.52C-37.8894 146.016 -35.3894 179.52 -53.3894 179.52H-148.889C-163.889 179.52 -166.389 146.016 -138.389 150.52Z" stroke="white" stroke-width="5"/>
<path d="M159.611 179.52H53.1112C41.6113 181.008 36.1113 150.52 60.6113 150.52L99.6113 98.0078L76.1113 111.508C53.1112 117.008 40.6113 108.008 46.1113 84.5078L69.6113 50.5078C71.6741 47.6409 71.5645 45.3966 69.6113 40.5078L67.1113 32.5078C66.0557 28.1769 67.0743 26.754 71.1113 25.5156H115.111C163.007 41.277 171.428 67.6405 156.611 150.52C169.611 152.508 172.111 176.508 159.611 179.52Z" stroke="white" stroke-width="5"/>
<path d="M349.111 179.52H249.111C234.611 177 237.611 147.5 258.111 150.52C256.611 135 226.611 118.5 283.611 61.5078C278.494 53.8588 277.479 49.251 278.111 40.5C278.942 29 290.111 21 299.611 21C311.525 21.9723 321.611 28 323.111 40.5C323.183 50.7012 322.047 55.5214 317.111 61.5078C322.923 65.7905 327.585 72.1554 332.611 79.5078L301.611 113.008L303.611 115.508L335.611 83.0078C356.611 103 354.111 139.5 340.111 150.52C361.111 144.5 368.611 179.52 349.111 179.52Z" stroke="white" stroke-width="5"/>
<path d="M549.111 179.52H449.111C431.111 177.5 434.611 146 459.111 150.52C447.646 143.645 440.611 138.5 437.111 71.5C421.216 62.0884 416.611 49.5 428.611 39C439.611 32.5 458.611 43 453.111 58L466.111 73.5L469.111 53C456.111 40.5 464.979 24.5 478.111 24.5C491.244 24.5 501.111 37 491.611 53L499.111 71.5L508.111 49.5C496.111 31.5 511.2 22.4351 521.111 24.5C533.111 27 540.111 43.5 528.611 53L533.111 68.5L545.611 57C543.111 39 556.111 33 569.111 40.5C578.111 47.5 578.305 61.1457 562.111 69.5C559.111 129 553.627 145.625 539.611 150.52C558.611 147 569.111 174.5 549.111 179.52Z" stroke="white" stroke-width="5"/>
<path d="M755.111 179.52H655.111C640.111 177.5 639.111 155 655.111 151.5C605.611 110 632.611 49.5 676.611 61L688.611 64.5L695.111 61V51.5H683.611V38H695.111V21.5H714.111V38H727.111V53H714.111V61L721.611 64.5L733.111 60C788.611 57 801.611 117 755.111 151.5C770.611 151.5 770.611 179.52 755.111 179.52Z" stroke="white" stroke-width="5"/>
</svg>
