<svg width="200" height="200" viewBox="0 0 200 200" fill="none" xmlns="http://www.w3.org/2000/svg">
<path d="M150.601 179.52H54.6012C37.6112 179.52 36.1106 149.016 60.6012 150.52C77.5294 134.311 82.1872 124.486 81.6012 106.52C65.369 95.0501 60.4484 86.2097 60.6012 65.5234C60.7711 42.5234 78.6108 25.5234 101.601 25.5234C122.601 25.5156 145.601 41.5156 145.601 65.5234C144.283 88.2065 135.611 99.5156 122.601 106.516C126.083 126.024 130.562 135.834 143.601 150.52C167.611 148.516 168.11 179.52 150.601 179.52Z" fill="black"/>
<path d="M261.611 150.52V106.516C242.644 107.505 237.322 103.9 236.111 91.5156V37.5156C238.654 32.382 240.566 30.314 245.111 28.5156H264.611C270.098 31.3314 271.711 33.3424 272.611 37.5156V55.0156H279.611V37.5156C280.938 32.5027 282.97 30.5693 288.611 28.5156H305.111C311.443 29.947 314.165 31.7485 317.611 37.5156V55.0156H324.611V37.5156C326.534 31.915 328.814 30.1838 334.111 28.5156H351.111C356.973 29.5855 359.553 31.2897 362.111 37.5156V91.5156C362.085 103.669 356.187 106.525 336.611 106.52V150.52C362.111 146.016 364.611 179.52 346.611 179.52H251.111C236.111 179.52 233.611 146.016 261.611 150.52Z" fill="black"/>
<path d="M559.611 179.52H453.111C441.611 181.008 436.111 150.52 460.611 150.52L499.611 98.0078L476.111 111.508C453.111 117.008 440.611 108.008 446.111 84.5078L469.611 50.5078C471.674 47.6409 471.564 45.3966 469.611 40.5078L467.111 32.5078C466.056 28.1769 467.074 26.754 471.111 25.5156H515.111C563.007 41.277 571.428 67.6405 556.611 150.52C569.611 152.508 572.111 176.508 559.611 179.52Z" fill="black"/>
<path d="M749.111 179.52H649.111C634.611 177 637.611 147.5 658.111 150.52C656.611 135 626.611 118.5 683.611 61.5078C678.494 53.8588 677.479 49.251 678.111 40.5C678.942 29 690.111 21 699.611 21C711.525 21.9723 721.611 28 723.111 40.5C723.183 50.7012 722.047 55.5214 717.111 61.5078C722.923 65.7905 727.585 72.1554 732.611 79.5078L701.611 113.008L703.611 115.508L735.611 83.0078C756.611 103 754.111 139.5 740.111 150.52C761.111 144.5 768.611 179.52 749.111 179.52Z" fill="black"/>
<path d="M949.111 179.52H849.111C831.111 177.5 834.611 146 859.111 150.52C847.646 143.645 840.611 138.5 837.111 71.5C821.216 62.0884 816.611 49.5 828.611 39C839.611 32.5 858.611 43 853.111 58L866.111 73.5L869.111 53C856.111 40.5 864.979 24.5 878.111 24.5C891.244 24.5 901.111 37 891.611 53L899.111 71.5L908.111 49.5C896.111 31.5 911.2 22.4351 921.111 24.5C933.111 27 940.111 43.5 928.611 53L933.111 68.5L945.611 57C943.111 39 956.111 33 969.111 40.5C978.111 47.5 978.305 61.1457 962.111 69.5C959.111 129 953.627 145.625 939.611 150.52C958.611 147 969.111 174.5 949.111 179.52Z" fill="black"/>
<path d="M1155.11 179.52H1055.11C1040.11 177.5 1039.11 155 1055.11 151.5C1005.61 110 1032.61 49.5 1076.61 61L1088.61 64.5L1095.11 61V51.5H1083.61V38H1095.11V21.5H1114.11V38H1127.11V53H1114.11V61L1121.61 64.5L1133.11 60C1188.61 57 1201.61 117 1155.11 151.5C1170.61 151.5 1170.61 179.52 1155.11 179.52Z" fill="black"/>
<path d="M150.601 179.52H54.6012C37.6112 179.52 36.1106 149.016 60.6012 150.52C77.5294 134.311 82.1872 124.486 81.6012 106.52C65.369 95.0501 60.4484 86.2097 60.6012 65.5234C60.7711 42.5234 78.6108 25.5234 101.601 25.5234C122.601 25.5156 145.601 41.5156 145.601 65.5234C144.283 88.2065 135.611 99.5156 122.601 106.516C126.083 126.024 130.562 135.834 143.601 150.52C167.611 148.516 168.11 179.52 150.601 179.52Z" stroke="white" stroke-width="5"/>
<path d="M261.611 150.52V106.516C242.644 107.505 237.322 103.9 236.111 91.5156V37.5156C238.654 32.382 240.566 30.314 245.111 28.5156H264.611C270.098 31.3314 271.711 33.3424 272.611 37.5156V55.0156H279.611V37.5156C280.938 32.5027 282.97 30.5693 288.611 28.5156H305.111C311.443 29.947 314.165 31.7485 317.611 37.5156V55.0156H324.611V37.5156C326.534 31.915 328.814 30.1838 334.111 28.5156H351.111C356.973 29.5855 359.553 31.2897 362.111 37.5156V91.5156C362.085 103.669 356.187 106.525 336.611 106.52V150.52C362.111 146.016 364.611 179.52 346.611 179.52H251.111C236.111 179.52 233.611 146.016 261.611 150.52Z" stroke="white" stroke-width="5"/>
<path d="M559.611 179.52H453.111C441.611 181.008 436.111 150.52 460.611 150.52L499.611 98.0078L476.111 111.508C453.111 117.008 440.611 108.008 446.111 84.5078L469.611 50.5078C471.674 47.6409 471.564 45.3966 469.611 40.5078L467.111 32.5078C466.056 28.1769 467.074 26.754 471.111 25.5156H515.111C563.007 41.277 571.428 67.6405 556.611 150.52C569.611 152.508 572.111 176.508 559.611 179.52Z" stroke="white" stroke-width="5"/>
<path d="M749.111 179.52H649.111C634.611 177 637.611 147.5 658.111 150.52C656.611 135 626.611 118.5 683.611 61.5078C678.494 53.8588 677.479 49.251 678.111 40.5C678.942 29 690.111 21 699.611 21C711.525 21.9723 721.611 28 723.111 40.5C723.183 50.7012 722.047 55.5214 717.111 61.5078C722.923 65.7905 727.585 72.1554 732.611 79.5078L701.611 113.008L703.611 115.508L735.611 83.0078C756.611 103 754.111 139.5 740.111 150.52C761.111 144.5 768.611 179.52 749.111 179.52Z" stroke="white" stroke-width="5"/>
<path d="M949.111 179.52H849.111C831.111 177.5 834.611 146 859.111 150.52C847.646 143.645 840.611 138.5 837.111 71.5C821.216 62.0884 816.611 49.5 828.611 39C839.611 32.5 858.611 43 853.111 58L866.111 73.5L869.111 53C856.111 40.5 864.979 24.5 878.111 24.5C891.244 24.5 901.111 37 891.611 53L899.111 71.5L908.111 49.5C896.111 31.5 911.2 22.4351 921.111 24.5C933.111 27 940.111 43.5 928.611 53L933.111 68.5L945.611 57C943.111 39 956.111 33 969.111 40.5C978.111 47.5 978.305 61.1457 962.111 69.5C959.111 129 953.627 145.625 939.611 150.52C958.611 147 969.111 174.5 949.111 179.52Z" stroke="white" stroke-width="5"/>
<path d="M1155.11 179.52H1055.11C1040.11 177.5 1039.11 155 1055.11 151.5C1005.61 110 1032.61 49.5 1076.61 61L1088.61 64.5L1095.11 61V51.5H1083.61V38H1095.11V21.5H1114.11V38H1127.11V53H1114.11V61L1121.61 64.5L1133.11 60C1188.61 57 1201.61 117 1155.11 151.5C1170.61 151.5 1170.61 179.52 1155.11 179.52Z" stroke="white" stroke-width="5"/>
</svg>
