<svg width="200" height="200" viewBox="0 0 200 200" fill="none" xmlns="http://www.w3.org/2000/svg">
<path d="M-649.399 179.52H-745.399C-762.389 179.52 -763.889 149.016 -739.399 150.52C-722.471 134.311 -717.813 124.486 -718.399 106.52C-734.631 95.0501 -739.552 86.2097 -739.399 65.5234C-739.229 42.5234 -721.389 25.5234 -698.399 25.5234C-677.399 25.5156 -654.399 41.5156 -654.399 65.5234C-655.717 88.2065 -664.389 99.5156 -677.399 106.516C-673.917 126.024 -669.438 135.834 -656.399 150.52C-632.389 148.516 -631.89 179.52 -649.399 179.52Z" fill="black"/>
<path d="M-538.389 150.52V106.516C-557.356 107.505 -562.678 103.9 -563.889 91.5156V37.5156C-561.346 32.382 -559.434 30.314 -554.889 28.5156H-535.389C-529.902 31.3314 -528.289 33.3424 -527.389 37.5156V55.0156H-520.389V37.5156C-519.062 32.5027 -517.03 30.5693 -511.389 28.5156H-494.889C-488.557 29.947 -485.835 31.7485 -482.389 37.5156V55.0156H-475.389V37.5156C-473.466 31.915 -471.186 30.1838 -465.889 28.5156H-448.889C-443.027 29.5855 -440.447 31.2897 -437.889 37.5156V91.5156C-437.915 103.669 -443.813 106.525 -463.389 106.52V150.52C-437.889 146.016 -435.389 179.52 -453.389 179.52H-548.889C-563.889 179.52 -566.389 146.016 -538.389 150.52Z" fill="black"/>
<path d="M-240.389 179.52H-346.889C-358.389 181.008 -363.889 150.52 -339.389 150.52L-300.389 98.0078L-323.889 111.508C-346.889 117.008 -359.389 108.008 -353.889 84.5078L-330.389 50.5078C-328.326 47.6409 -328.436 45.3966 -330.389 40.5078L-332.889 32.5078C-333.944 28.1769 -332.926 26.754 -328.889 25.5156H-284.889C-236.993 41.277 -228.572 67.6405 -243.389 150.52C-230.389 152.508 -227.889 176.508 -240.389 179.52Z" fill="black"/>
<path d="M-50.8887 179.52H-150.889C-165.389 177 -162.389 147.5 -141.889 150.52C-143.389 135 -173.389 118.5 -116.389 61.5078C-121.506 53.8588 -122.521 49.251 -121.889 40.5C-121.058 29 -109.889 21 -100.389 21C-88.475 21.9723 -78.3887 28 -76.8887 40.5C-76.8165 50.7012 -77.9529 55.5214 -82.8887 61.5078C-77.0765 65.7905 -72.4146 72.1554 -67.3887 79.5078L-98.3887 113.008L-96.3887 115.508L-64.3887 83.0078C-43.3887 103 -45.8887 139.5 -59.8887 150.52C-38.8887 144.5 -31.3887 179.52 -50.8887 179.52Z" fill="black"/>
<path d="M149.111 179.52H49.1113C31.1113 177.5 34.6113 146 59.1113 150.52C47.6462 143.645 40.6113 138.5 37.1113 71.5C21.2162 62.0884 16.6113 49.5 28.6113 39C39.6113 32.5 58.6113 43 53.1113 58L66.1113 73.5L69.1113 53C56.1113 40.5 64.9786 24.5 78.1113 24.5C91.2441 24.5 101.111 37 91.6113 53L99.1113 71.5L108.111 49.5C96.1113 31.5 111.2 22.4351 121.111 24.5C133.111 27 140.111 43.5 128.611 53L133.111 68.5L145.611 57C143.111 39 156.111 33 169.111 40.5C178.111 47.5 178.305 61.1457 162.111 69.5C159.111 129 153.627 145.625 139.611 150.52C158.611 147 169.111 174.5 149.111 179.52Z" fill="black"/>
<path d="M355.111 179.52H255.111C240.111 177.5 239.111 155 255.111 151.5C205.611 110 232.611 49.5 276.611 61L288.611 64.5L295.111 61V51.5H283.611V38H295.111V21.5H314.111V38H327.111V53H314.111V61L321.611 64.5L333.111 60C388.611 57 401.611 117 355.111 151.5C370.611 151.5 370.611 179.52 355.111 179.52Z" fill="black"/>
<path d="M-649.399 179.52H-745.399C-762.389 179.52 -763.889 149.016 -739.399 150.52C-722.471 134.311 -717.813 124.486 -718.399 106.52C-734.631 95.0501 -739.552 86.2097 -739.399 65.5234C-739.229 42.5234 -721.389 25.5234 -698.399 25.5234C-677.399 25.5156 -654.399 41.5156 -654.399 65.5234C-655.717 88.2065 -664.389 99.5156 -677.399 106.516C-673.917 126.024 -669.438 135.834 -656.399 150.52C-632.389 148.516 -631.89 179.52 -649.399 179.52Z" stroke="white" stroke-width="5"/>
<path d="M-538.389 150.52V106.516C-557.356 107.505 -562.678 103.9 -563.889 91.5156V37.5156C-561.346 32.382 -559.434 30.314 -554.889 28.5156H-535.389C-529.902 31.3314 -528.289 33.3424 -527.389 37.5156V55.0156H-520.389V37.5156C-519.062 32.5027 -517.03 30.5693 -511.389 28.5156H-494.889C-488.557 29.947 -485.835 31.7485 -482.389 37.5156V55.0156H-475.389V37.5156C-473.466 31.915 -471.186 30.1838 -465.889 28.5156H-448.889C-443.027 29.5855 -440.447 31.2897 -437.889 37.5156V91.5156C-437.915 103.669 -443.813 106.525 -463.389 106.52V150.52C-437.889 146.016 -435.389 179.52 -453.389 179.52H-548.889C-563.889 179.52 -566.389 146.016 -538.389 150.52Z" stroke="white" stroke-width="5"/>
<path d="M-240.389 179.52H-346.889C-358.389 181.008 -363.889 150.52 -339.389 150.52L-300.389 98.0078L-323.889 111.508C-346.889 117.008 -359.389 108.008 -353.889 84.5078L-330.389 50.5078C-328.326 47.6409 -328.436 45.3966 -330.389 40.5078L-332.889 32.5078C-333.944 28.1769 -332.926 26.754 -328.889 25.5156H-284.889C-236.993 41.277 -228.572 67.6405 -243.389 150.52C-230.389 152.508 -227.889 176.508 -240.389 179.52Z" stroke="white" stroke-width="5"/>
<path d="M-50.8887 179.52H-150.889C-165.389 177 -162.389 147.5 -141.889 150.52C-143.389 135 -173.389 118.5 -116.389 61.5078C-121.506 53.8588 -122.521 49.251 -121.889 40.5C-121.058 29 -109.889 21 -100.389 21C-88.475 21.9723 -78.3887 28 -76.8887 40.5C-76.8165 50.7012 -77.9529 55.5214 -82.8887 61.5078C-77.0765 65.7905 -72.4146 72.1554 -67.3887 79.5078L-98.3887 113.008L-96.3887 115.508L-64.3887 83.0078C-43.3887 103 -45.8887 139.5 -59.8887 150.52C-38.8887 144.5 -31.3887 179.52 -50.8887 179.52Z" stroke="white" stroke-width="5"/>
<path d="M149.111 179.52H49.1113C31.1113 177.5 34.6113 146 59.1113 150.52C47.6462 143.645 40.6113 138.5 37.1113 71.5C21.2162 62.0884 16.6113 49.5 28.6113 39C39.6113 32.5 58.6113 43 53.1113 58L66.1113 73.5L69.1113 53C56.1113 40.5 64.9786 24.5 78.1113 24.5C91.2441 24.5 101.111 37 91.6113 53L99.1113 71.5L108.111 49.5C96.1113 31.5 111.2 22.4351 121.111 24.5C133.111 27 140.111 43.5 128.611 53L133.111 68.5L145.611 57C143.111 39 156.111 33 169.111 40.5C178.111 47.5 178.305 61.1457 162.111 69.5C159.111 129 153.627 145.625 139.611 150.52C158.611 147 169.111 174.5 149.111 179.52Z" stroke="white" stroke-width="5"/>
<path d="M355.111 179.52H255.111C240.111 177.5 239.111 155 255.111 151.5C205.611 110 232.611 49.5 276.611 61L288.611 64.5L295.111 61V51.5H283.611V38H295.111V21.5H314.111V38H327.111V53H314.111V61L321.611 64.5L333.111 60C388.611 57 401.611 117 355.111 151.5C370.611 151.5 370.611 179.52 355.111 179.52Z" stroke="white" stroke-width="5"/>
</svg>
