<svg width="200" height="200" viewBox="0 0 200 200" fill="none" xmlns="http://www.w3.org/2000/svg">
<path d="M-49.3988 179.52H-145.399C-162.389 179.52 -163.889 149.016 -139.399 150.52C-122.471 134.311 -117.813 124.486 -118.399 106.52C-134.631 95.0501 -139.552 86.2097 -139.399 65.5234C-139.229 42.5234 -121.389 25.5234 -98.3988 25.5234C-77.3988 25.5156 -54.3988 41.5156 -54.3988 65.5234C-55.7167 88.2065 -64.3892 99.5156 -77.3988 106.516C-73.9167 126.024 -69.4382 135.834 -56.3988 150.52C-32.3888 148.516 -31.89 179.52 -49.3988 179.52Z" fill="black"/>
<path d="M61.6106 150.52V106.516C42.6443 107.505 37.3216 103.9 36.1106 91.5156V37.5156C38.654 32.382 40.5658 30.314 45.1106 28.5156H64.6106C70.0982 31.3314 71.7109 33.3424 72.6106 37.5156V55.0156H79.6106V37.5156C80.9382 32.5027 82.9702 30.5693 88.6106 28.5156H105.111C111.443 29.947 114.165 31.7485 117.611 37.5156V55.0156H124.611V37.5156C126.534 31.915 128.814 30.1838 134.111 28.5156H151.111C156.973 29.5855 159.553 31.2897 162.111 37.5156V91.5156C162.085 103.669 156.187 106.525 136.611 106.52V150.52C162.111 146.016 164.611 179.52 146.611 179.52H51.1106C36.1106 179.52 33.6106 146.016 61.6106 150.52Z" fill="black"/>
<path d="M359.611 179.52H253.111C241.611 181.008 236.111 150.52 260.611 150.52L299.611 98.0078L276.111 111.508C253.111 117.008 240.611 108.008 246.111 84.5078L269.611 50.5078C271.674 47.6409 271.564 45.3966 269.611 40.5078L267.111 32.5078C266.056 28.1769 267.074 26.754 271.111 25.5156H315.111C363.007 41.277 371.428 67.6405 356.611 150.52C369.611 152.508 372.111 176.508 359.611 179.52Z" fill="black"/>
<path d="M549.111 179.52H449.111C434.611 177 437.611 147.5 458.111 150.52C456.611 135 426.611 118.5 483.611 61.5078C478.494 53.8588 477.479 49.251 478.111 40.5C478.942 29 490.111 21 499.611 21C511.525 21.9723 521.611 28 523.111 40.5C523.183 50.7012 522.047 55.5214 517.111 61.5078C522.923 65.7905 527.585 72.1554 532.611 79.5078L501.611 113.008L503.611 115.508L535.611 83.0078C556.611 103 554.111 139.5 540.111 150.52C561.111 144.5 568.611 179.52 549.111 179.52Z" fill="black"/>
<path d="M749.111 179.52H649.111C631.111 177.5 634.611 146 659.111 150.52C647.646 143.645 640.611 138.5 637.111 71.5C621.216 62.0884 616.611 49.5 628.611 39C639.611 32.5 658.611 43 653.111 58L666.111 73.5L669.111 53C656.111 40.5 664.979 24.5 678.111 24.5C691.244 24.5 701.111 37 691.611 53L699.111 71.5L708.111 49.5C696.111 31.5 711.2 22.4351 721.111 24.5C733.111 27 740.111 43.5 728.611 53L733.111 68.5L745.611 57C743.111 39 756.111 33 769.111 40.5C778.111 47.5 778.305 61.1457 762.111 69.5C759.111 129 753.627 145.625 739.611 150.52C758.611 147 769.111 174.5 749.111 179.52Z" fill="black"/>
<path d="M955.111 179.52H855.111C840.111 177.5 839.111 155 855.111 151.5C805.611 110 832.611 49.5 876.611 61L888.611 64.5L895.111 61V51.5H883.611V38H895.111V21.5H914.111V38H927.111V53H914.111V61L921.611 64.5L933.111 60C988.611 57 1001.61 117 955.111 151.5C970.611 151.5 970.611 179.52 955.111 179.52Z" fill="black"/>
<path d="M-49.3988 179.52H-145.399C-162.389 179.52 -163.889 149.016 -139.399 150.52C-122.471 134.311 -117.813 124.486 -118.399 106.52C-134.631 95.0501 -139.552 86.2097 -139.399 65.5234C-139.229 42.5234 -121.389 25.5234 -98.3988 25.5234C-77.3988 25.5156 -54.3988 41.5156 -54.3988 65.5234C-55.7167 88.2065 -64.3892 99.5156 -77.3988 106.516C-73.9167 126.024 -69.4382 135.834 -56.3988 150.52C-32.3888 148.516 -31.89 179.52 -49.3988 179.52Z" stroke="white" stroke-width="5"/>
<path d="M61.6106 150.52V106.516C42.6443 107.505 37.3216 103.9 36.1106 91.5156V37.5156C38.654 32.382 40.5658 30.314 45.1106 28.5156H64.6106C70.0982 31.3314 71.7109 33.3424 72.6106 37.5156V55.0156H79.6106V37.5156C80.9382 32.5027 82.9702 30.5693 88.6106 28.5156H105.111C111.443 29.947 114.165 31.7485 117.611 37.5156V55.0156H124.611V37.5156C126.534 31.915 128.814 30.1838 134.111 28.5156H151.111C156.973 29.5855 159.553 31.2897 162.111 37.5156V91.5156C162.085 103.669 156.187 106.525 136.611 106.52V150.52C162.111 146.016 164.611 179.52 146.611 179.52H51.1106C36.1106 179.52 33.6106 146.016 61.6106 150.52Z" stroke="white" stroke-width="5"/>
<path d="M359.611 179.52H253.111C241.611 181.008 236.111 150.52 260.611 150.52L299.611 98.0078L276.111 111.508C253.111 117.008 240.611 108.008 246.111 84.5078L269.611 50.5078C271.674 47.6409 271.564 45.3966 269.611 40.5078L267.111 32.5078C266.056 28.1769 267.074 26.754 271.111 25.5156H315.111C363.007 41.277 371.428 67.6405 356.611 150.52C369.611 152.508 372.111 176.508 359.611 179.52Z" stroke="white" stroke-width="5"/>
<path d="M549.111 179.52H449.111C434.611 177 437.611 147.5 458.111 150.52C456.611 135 426.611 118.5 483.611 61.5078C478.494 53.8588 477.479 49.251 478.111 40.5C478.942 29 490.111 21 499.611 21C511.525 21.9723 521.611 28 523.111 40.5C523.183 50.7012 522.047 55.5214 517.111 61.5078C522.923 65.7905 527.585 72.1554 532.611 79.5078L501.611 113.008L503.611 115.508L535.611 83.0078C556.611 103 554.111 139.5 540.111 150.52C561.111 144.5 568.611 179.52 549.111 179.52Z" stroke="white" stroke-width="5"/>
<path d="M749.111 179.52H649.111C631.111 177.5 634.611 146 659.111 150.52C647.646 143.645 640.611 138.5 637.111 71.5C621.216 62.0884 616.611 49.5 628.611 39C639.611 32.5 658.611 43 653.111 58L666.111 73.5L669.111 53C656.111 40.5 664.979 24.5 678.111 24.5C691.244 24.5 701.111 37 691.611 53L699.111 71.5L708.111 49.5C696.111 31.5 711.2 22.4351 721.111 24.5C733.111 27 740.111 43.5 728.611 53L733.111 68.5L745.611 57C743.111 39 756.111 33 769.111 40.5C778.111 47.5 778.305 61.1457 762.111 69.5C759.111 129 753.627 145.625 739.611 150.52C758.611 147 769.111 174.5 749.111 179.52Z" stroke="white" stroke-width="5"/>
<path d="M955.111 179.52H855.111C840.111 177.5 839.111 155 855.111 151.5C805.611 110 832.611 49.5 876.611 61L888.611 64.5L895.111 61V51.5H883.611V38H895.111V21.5H914.111V38H927.111V53H914.111V61L921.611 64.5L933.111 60C988.611 57 1001.61 117 955.111 151.5C970.611 151.5 970.611 179.52 955.111 179.52Z" stroke="white" stroke-width="5"/>
</svg>
