<svg width="1300" height="928" viewBox="0 0 1300 928" fill="none" xmlns="http://www.w3.org/2000/svg">
<path d="M188.99 651.02H92.9899C75.9998 651.02 74.4993 620.516 98.9899 622.02C115.918 605.811 120.576 595.986 119.99 578.02C103.758 566.55 98.8371 557.71 98.9899 537.023C99.1597 514.023 117 497.023 139.99 497.023C160.99 497.016 183.99 513.016 183.99 537.023C182.672 559.707 174 571.016 160.99 578.016C164.472 597.524 168.951 607.334 181.99 622.02C206 620.016 206.499 651.02 188.99 651.02Z" fill="white"/>
<path d="M299.999 622.02V578.016C281.033 579.005 275.71 575.4 274.499 563.016V509.016C277.043 503.882 278.955 501.814 283.499 500.016H302.999C308.487 502.831 310.1 504.842 310.999 509.016V526.516H317.999V509.016C319.327 504.003 321.359 502.069 326.999 500.016H343.499C349.831 501.447 352.553 503.249 355.999 509.016V526.516H362.999V509.016C364.922 503.415 367.203 501.684 372.499 500.016H389.499C395.362 501.085 397.941 502.79 400.499 509.016V563.016C400.473 575.169 394.575 578.025 374.999 578.02V622.02C400.499 617.516 402.999 651.02 384.999 651.02H289.499C274.499 651.02 271.999 617.516 299.999 622.02Z" fill="white"/>
<path d="M598 651.02H491.5C480 652.508 474.5 622.02 499 622.02L538 569.508L514.5 583.008C491.5 588.508 479 579.508 484.5 556.008L508 522.008C510.063 519.141 509.953 516.897 508 512.008L505.5 504.008C504.444 499.677 505.463 498.254 509.5 497.016H553.5C601.395 512.777 609.816 539.14 595 622.02C608 624.008 610.5 648.008 598 651.02Z" fill="white"/>
<path d="M787.5 651.02H687.5C673 648.5 676 619 696.5 622.02C695 606.5 665 590 722 533.008C716.883 525.359 715.868 520.751 716.5 512C717.331 500.5 728.5 492.5 738 492.5C749.914 493.472 760 499.5 761.5 512C761.572 522.201 760.436 527.021 755.5 533.008C761.312 537.29 765.974 543.655 771 551.008L740 584.508L742 587.008L774 554.508C795 574.5 792.5 611 778.5 622.02C799.5 616 807 651.02 787.5 651.02Z" fill="white"/>
<path d="M987.5 651.02H887.5C869.5 649 873 617.5 897.5 622.02C886.035 615.145 879 610 875.5 543C859.605 533.588 855 521 867 510.5C878 504 897 514.5 891.5 529.5L904.5 545L907.5 524.5C894.5 512 903.367 496 916.5 496C929.633 496 939.5 508.5 930 524.5L937.5 543L946.5 521C934.5 503 949.589 493.935 959.5 496C971.5 498.5 978.5 515 967 524.5L971.5 540L984 528.5C981.5 510.5 994.5 504.5 1007.5 512C1016.5 519 1016.69 532.646 1000.5 541C997.5 600.5 992.016 617.125 978 622.02C997 618.5 1007.5 646 987.5 651.02Z" fill="white"/>
<path d="M1193.5 651.02H1093.5C1078.5 649 1077.5 626.5 1093.5 623C1044 581.5 1071 521 1115 532.5L1127 536L1133.5 532.5V523H1122V509.5H1133.5V493H1152.5V509.5H1165.5V524.5H1152.5V532.5L1160 536L1171.5 531.5C1227 528.5 1240 588.5 1193.5 623C1209 623 1209 651.02 1193.5 651.02Z" fill="white"/>
<path d="M188.99 651.02H92.9899C75.9998 651.02 74.4993 620.516 98.9899 622.02C115.918 605.811 120.576 595.986 119.99 578.02C103.758 566.55 98.8371 557.71 98.9899 537.023C99.1597 514.023 117 497.023 139.99 497.023C160.99 497.016 183.99 513.016 183.99 537.023C182.672 559.707 174 571.016 160.99 578.016C164.472 597.524 168.951 607.334 181.99 622.02C206 620.016 206.499 651.02 188.99 651.02Z" stroke="black" stroke-width="5"/>
<path d="M299.999 622.02V578.016C281.033 579.005 275.71 575.4 274.499 563.016V509.016C277.043 503.882 278.955 501.814 283.499 500.016H302.999C308.487 502.831 310.1 504.842 310.999 509.016V526.516H317.999V509.016C319.327 504.003 321.359 502.069 326.999 500.016H343.499C349.831 501.447 352.553 503.249 355.999 509.016V526.516H362.999V509.016C364.922 503.415 367.203 501.684 372.499 500.016H389.499C395.362 501.085 397.941 502.79 400.499 509.016V563.016C400.473 575.169 394.575 578.025 374.999 578.02V622.02C400.499 617.516 402.999 651.02 384.999 651.02H289.499C274.499 651.02 271.999 617.516 299.999 622.02Z" stroke="black" stroke-width="5"/>
<path d="M598 651.02H491.5C480 652.508 474.5 622.02 499 622.02L538 569.508L514.5 583.008C491.5 588.508 479 579.508 484.5 556.008L508 522.008C510.063 519.141 509.953 516.897 508 512.008L505.5 504.008C504.444 499.677 505.463 498.254 509.5 497.016H553.5C601.395 512.777 609.816 539.14 595 622.02C608 624.008 610.5 648.008 598 651.02Z" stroke="black" stroke-width="5"/>
<path d="M787.5 651.02H687.5C673 648.5 676 619 696.5 622.02C695 606.5 665 590 722 533.008C716.883 525.359 715.868 520.751 716.5 512C717.331 500.5 728.5 492.5 738 492.5C749.914 493.472 760 499.5 761.5 512C761.572 522.201 760.436 527.021 755.5 533.008C761.312 537.29 765.974 543.655 771 551.008L740 584.508L742 587.008L774 554.508C795 574.5 792.5 611 778.5 622.02C799.5 616 807 651.02 787.5 651.02Z" stroke="black" stroke-width="5"/>
<path d="M987.5 651.02H887.5C869.5 649 873 617.5 897.5 622.02C886.035 615.145 879 610 875.5 543C859.605 533.588 855 521 867 510.5C878 504 897 514.5 891.5 529.5L904.5 545L907.5 524.5C894.5 512 903.367 496 916.5 496C929.633 496 939.5 508.5 930 524.5L937.5 543L946.5 521C934.5 503 949.589 493.935 959.5 496C971.5 498.5 978.5 515 967 524.5L971.5 540L984 528.5C981.5 510.5 994.5 504.5 1007.5 512C1016.5 519 1016.69 532.646 1000.5 541C997.5 600.5 992.016 617.125 978 622.02C997 618.5 1007.5 646 987.5 651.02Z" stroke="black" stroke-width="5"/>
<path d="M1193.5 651.02H1093.5C1078.5 649 1077.5 626.5 1093.5 623C1044 581.5 1071 521 1115 532.5L1127 536L1133.5 532.5V523H1122V509.5H1133.5V493H1152.5V509.5H1165.5V524.5H1152.5V532.5L1160 536L1171.5 531.5C1227 528.5 1240 588.5 1193.5 623C1209 623 1209 651.02 1193.5 651.02Z" stroke="black" stroke-width="5"/>
<path d="M187.601 429.52H91.6012C74.6112 429.52 73.1106 399.016 97.6012 400.52C114.529 384.311 119.187 374.486 118.601 356.52C102.369 345.05 97.4484 336.21 97.6012 315.523C97.7711 292.523 115.611 275.523 138.601 275.523C159.601 275.516 182.601 291.516 182.601 315.523C181.283 338.207 172.611 349.516 159.601 356.516C163.083 376.024 167.562 385.834 180.601 400.52C204.611 398.516 205.11 429.52 187.601 429.52Z" fill="black"/>
<path d="M298.611 400.52V356.516C279.644 357.505 274.322 353.9 273.111 341.516V287.516C275.654 282.382 277.566 280.314 282.111 278.516H301.611C307.098 281.331 308.711 283.342 309.611 287.516V305.016H316.611V287.516C317.938 282.503 319.97 280.569 325.611 278.516H342.111C348.443 279.947 351.165 281.749 354.611 287.516V305.016H361.611V287.516C363.534 281.915 365.814 280.184 371.111 278.516H388.111C393.973 279.585 396.553 281.29 399.111 287.516V341.516C399.085 353.669 393.187 356.525 373.611 356.52V400.52C399.111 396.016 401.611 429.52 383.611 429.52H288.111C273.111 429.52 270.611 396.016 298.611 400.52Z" fill="black"/>
<path d="M596.611 429.52H490.111C478.611 431.008 473.111 400.52 497.611 400.52L536.611 348.008L513.111 361.508C490.111 367.008 477.611 358.008 483.111 334.508L506.611 300.508C508.674 297.641 508.564 295.397 506.611 290.508L504.111 282.508C503.056 278.177 504.074 276.754 508.111 275.516H552.111C600.007 291.277 608.428 317.64 593.611 400.52C606.611 402.508 609.111 426.508 596.611 429.52Z" fill="black"/>
<path d="M786.111 429.52H686.111C671.611 427 674.611 397.5 695.111 400.52C693.611 385 663.611 368.5 720.611 311.508C715.494 303.859 714.479 299.251 715.111 290.5C715.942 279 727.111 271 736.611 271C748.525 271.972 758.611 278 760.111 290.5C760.183 300.701 759.047 305.521 754.111 311.508C759.923 315.79 764.585 322.155 769.611 329.508L738.611 363.008L740.611 365.508L772.611 333.008C793.611 353 791.111 389.5 777.111 400.52C798.111 394.5 805.611 429.52 786.111 429.52Z" fill="black"/>
<path d="M986.111 429.52H886.111C868.111 427.5 871.611 396 896.111 400.52C884.646 393.645 877.611 388.5 874.111 321.5C858.216 312.088 853.611 299.5 865.611 289C876.611 282.5 895.611 293 890.111 308L903.111 323.5L906.111 303C893.111 290.5 901.979 274.5 915.111 274.5C928.244 274.5 938.111 287 928.611 303L936.111 321.5L945.111 299.5C933.111 281.5 948.2 272.435 958.111 274.5C970.111 277 977.111 293.5 965.611 303L970.111 318.5L982.611 307C980.111 289 993.111 283 1006.11 290.5C1015.11 297.5 1015.3 311.146 999.111 319.5C996.111 379 990.627 395.625 976.611 400.52C995.611 397 1006.11 424.5 986.111 429.52Z" fill="black"/>
<path d="M1192.11 429.52H1092.11C1077.11 427.5 1076.11 405 1092.11 401.5C1042.61 360 1069.61 299.5 1113.61 311L1125.61 314.5L1132.11 311V301.5H1120.61V288H1132.11V271.5H1151.11V288H1164.11V303H1151.11V311L1158.61 314.5L1170.11 310C1225.61 307 1238.61 367 1192.11 401.5C1207.61 401.5 1207.61 429.52 1192.11 429.52Z" fill="black"/>
<path d="M187.601 429.52H91.6012C74.6112 429.52 73.1106 399.016 97.6012 400.52C114.529 384.311 119.187 374.486 118.601 356.52C102.369 345.05 97.4484 336.21 97.6012 315.523C97.7711 292.523 115.611 275.523 138.601 275.523C159.601 275.516 182.601 291.516 182.601 315.523C181.283 338.207 172.611 349.516 159.601 356.516C163.083 376.024 167.562 385.834 180.601 400.52C204.611 398.516 205.11 429.52 187.601 429.52Z" stroke="white" stroke-width="5"/>
<path d="M298.611 400.52V356.516C279.644 357.505 274.322 353.9 273.111 341.516V287.516C275.654 282.382 277.566 280.314 282.111 278.516H301.611C307.098 281.331 308.711 283.342 309.611 287.516V305.016H316.611V287.516C317.938 282.503 319.97 280.569 325.611 278.516H342.111C348.443 279.947 351.165 281.749 354.611 287.516V305.016H361.611V287.516C363.534 281.915 365.814 280.184 371.111 278.516H388.111C393.973 279.585 396.553 281.29 399.111 287.516V341.516C399.085 353.669 393.187 356.525 373.611 356.52V400.52C399.111 396.016 401.611 429.52 383.611 429.52H288.111C273.111 429.52 270.611 396.016 298.611 400.52Z" stroke="white" stroke-width="5"/>
<path d="M596.611 429.52H490.111C478.611 431.008 473.111 400.52 497.611 400.52L536.611 348.008L513.111 361.508C490.111 367.008 477.611 358.008 483.111 334.508L506.611 300.508C508.674 297.641 508.564 295.397 506.611 290.508L504.111 282.508C503.056 278.177 504.074 276.754 508.111 275.516H552.111C600.007 291.277 608.428 317.64 593.611 400.52C606.611 402.508 609.111 426.508 596.611 429.52Z" stroke="white" stroke-width="5"/>
<path d="M786.111 429.52H686.111C671.611 427 674.611 397.5 695.111 400.52C693.611 385 663.611 368.5 720.611 311.508C715.494 303.859 714.479 299.251 715.111 290.5C715.942 279 727.111 271 736.611 271C748.525 271.972 758.611 278 760.111 290.5C760.183 300.701 759.047 305.521 754.111 311.508C759.923 315.79 764.585 322.155 769.611 329.508L738.611 363.008L740.611 365.508L772.611 333.008C793.611 353 791.111 389.5 777.111 400.52C798.111 394.5 805.611 429.52 786.111 429.52Z" stroke="white" stroke-width="5"/>
<path d="M986.111 429.52H886.111C868.111 427.5 871.611 396 896.111 400.52C884.646 393.645 877.611 388.5 874.111 321.5C858.216 312.088 853.611 299.5 865.611 289C876.611 282.5 895.611 293 890.111 308L903.111 323.5L906.111 303C893.111 290.5 901.979 274.5 915.111 274.5C928.244 274.5 938.111 287 928.611 303L936.111 321.5L945.111 299.5C933.111 281.5 948.2 272.435 958.111 274.5C970.111 277 977.111 293.5 965.611 303L970.111 318.5L982.611 307C980.111 289 993.111 283 1006.11 290.5C1015.11 297.5 1015.3 311.146 999.111 319.5C996.111 379 990.627 395.625 976.611 400.52C995.611 397 1006.11 424.5 986.111 429.52Z" stroke="white" stroke-width="5"/>
<path d="M1192.11 429.52H1092.11C1077.11 427.5 1076.11 405 1092.11 401.5C1042.61 360 1069.61 299.5 1113.61 311L1125.61 314.5L1132.11 311V301.5H1120.61V288H1132.11V271.5H1151.11V288H1164.11V303H1151.11V311L1158.61 314.5L1170.11 310C1225.61 307 1238.61 367 1192.11 401.5C1207.61 401.5 1207.61 429.52 1192.11 429.52Z" stroke="white" stroke-width="5"/>
</svg>
