<svg width="200" height="200" viewBox="0 0 200 200" fill="none" xmlns="http://www.w3.org/2000/svg">
<path d="M-448.01 179.02H-544.01C-561 179.02 -562.501 148.516 -538.01 150.02C-521.082 133.811 -516.424 123.986 -517.01 106.02C-533.242 94.5501 -538.163 85.7097 -538.01 65.0234C-537.84 42.0234 -520 25.0234 -497.01 25.0234C-476.01 25.0156 -453.01 41.0156 -453.01 65.0234C-454.328 87.7065 -463 99.0156 -476.01 106.016C-472.528 125.524 -468.049 135.334 -455.01 150.02C-431 148.016 -430.501 179.02 -448.01 179.02Z" fill="white"/>
<path d="M-337.001 150.02V106.016C-355.967 107.005 -361.29 103.4 -362.501 91.0156V37.0156C-359.957 31.882 -358.045 29.814 -353.501 28.0156H-334.001C-328.513 30.8314 -326.9 32.8424 -326.001 37.0156V54.5156H-319.001V37.0156C-317.673 32.0027 -315.641 30.0693 -310.001 28.0156H-293.501C-287.169 29.447 -284.447 31.2485 -281.001 37.0156V54.5156H-274.001V37.0156C-272.078 31.415 -269.797 29.6838 -264.501 28.0156H-247.501C-241.638 29.0855 -239.059 30.7897 -236.501 37.0156V91.0156C-236.527 103.169 -242.425 106.025 -262.001 106.02V150.02C-236.501 145.516 -234.001 179.02 -252.001 179.02H-347.501C-362.501 179.02 -365.001 145.516 -337.001 150.02Z" fill="white"/>
<path d="M-39 179.02H-145.5C-157 180.508 -162.5 150.02 -138 150.02L-99 97.5078L-122.5 111.008C-145.5 116.508 -158 107.508 -152.5 84.0078L-129 50.0078C-126.937 47.1409 -127.047 44.8966 -129 40.0078L-131.5 32.0078C-132.556 27.6769 -131.537 26.254 -127.5 25.0156H-83.5C-35.6046 40.777 -27.1837 67.1405 -42 150.02C-29 152.008 -26.5 176.008 -39 179.02Z" fill="white"/>
<path d="M150.5 179.02H50.5C36 176.5 39 147 59.5 150.02C58 134.5 28 118 85 61.0078C79.8828 53.3588 78.8679 48.751 79.5 40C80.3307 28.5 91.5 20.5 101 20.5C112.914 21.4723 123 27.5 124.5 40C124.572 50.2012 123.436 55.0214 118.5 61.0078C124.312 65.2905 128.974 71.6554 134 79.0078L103 112.508L105 115.008L137 82.5078C158 102.5 155.5 139 141.5 150.02C162.5 144 170 179.02 150.5 179.02Z" fill="white"/>
<path d="M350.5 179.02H250.5C232.5 177 236 145.5 260.5 150.02C249.035 143.145 242 138 238.5 71C222.605 61.5884 218 49 230 38.5C241 32 260 42.5 254.5 57.5L267.5 73L270.5 52.5C257.5 40 266.367 24 279.5 24C292.633 24 302.5 36.5 293 52.5L300.5 71L309.5 49C297.5 31 312.589 21.9351 322.5 24C334.5 26.5 341.5 43 330 52.5L334.5 68L347 56.5C344.5 38.5 357.5 32.5 370.5 40C379.5 47 379.694 60.6457 363.5 69C360.5 128.5 355.016 145.125 341 150.02C360 146.5 370.5 174 350.5 179.02Z" fill="white"/>
<path d="M556.5 179.02H456.5C441.5 177 440.5 154.5 456.5 151C407 109.5 434 49 478 60.5L490 64L496.5 60.5V51H485V37.5H496.5V21H515.5V37.5H528.5V52.5H515.5V60.5L523 64L534.5 59.5C590 56.5 603 116.5 556.5 151C572 151 572 179.02 556.5 179.02Z" fill="white"/>
<path d="M-448.01 179.02H-544.01C-561 179.02 -562.501 148.516 -538.01 150.02C-521.082 133.811 -516.424 123.986 -517.01 106.02C-533.242 94.5501 -538.163 85.7097 -538.01 65.0234C-537.84 42.0234 -520 25.0234 -497.01 25.0234C-476.01 25.0156 -453.01 41.0156 -453.01 65.0234C-454.328 87.7065 -463 99.0156 -476.01 106.016C-472.528 125.524 -468.049 135.334 -455.01 150.02C-431 148.016 -430.501 179.02 -448.01 179.02Z" stroke="black" stroke-width="5"/>
<path d="M-337.001 150.02V106.016C-355.967 107.005 -361.29 103.4 -362.501 91.0156V37.0156C-359.957 31.882 -358.045 29.814 -353.501 28.0156H-334.001C-328.513 30.8314 -326.9 32.8424 -326.001 37.0156V54.5156H-319.001V37.0156C-317.673 32.0027 -315.641 30.0693 -310.001 28.0156H-293.501C-287.169 29.447 -284.447 31.2485 -281.001 37.0156V54.5156H-274.001V37.0156C-272.078 31.415 -269.797 29.6838 -264.501 28.0156H-247.501C-241.638 29.0855 -239.059 30.7897 -236.501 37.0156V91.0156C-236.527 103.169 -242.425 106.025 -262.001 106.02V150.02C-236.501 145.516 -234.001 179.02 -252.001 179.02H-347.501C-362.501 179.02 -365.001 145.516 -337.001 150.02Z" stroke="black" stroke-width="5"/>
<path d="M-39 179.02H-145.5C-157 180.508 -162.5 150.02 -138 150.02L-99 97.5078L-122.5 111.008C-145.5 116.508 -158 107.508 -152.5 84.0078L-129 50.0078C-126.937 47.1409 -127.047 44.8966 -129 40.0078L-131.5 32.0078C-132.556 27.6769 -131.537 26.254 -127.5 25.0156H-83.5C-35.6046 40.777 -27.1837 67.1405 -42 150.02C-29 152.008 -26.5 176.008 -39 179.02Z" stroke="black" stroke-width="5"/>
<path d="M150.5 179.02H50.5C36 176.5 39 147 59.5 150.02C58 134.5 28 118 85 61.0078C79.8828 53.3588 78.8679 48.751 79.5 40C80.3307 28.5 91.5 20.5 101 20.5C112.914 21.4723 123 27.5 124.5 40C124.572 50.2012 123.436 55.0214 118.5 61.0078C124.312 65.2905 128.974 71.6554 134 79.0078L103 112.508L105 115.008L137 82.5078C158 102.5 155.5 139 141.5 150.02C162.5 144 170 179.02 150.5 179.02Z" stroke="black" stroke-width="5"/>
<path d="M350.5 179.02H250.5C232.5 177 236 145.5 260.5 150.02C249.035 143.145 242 138 238.5 71C222.605 61.5884 218 49 230 38.5C241 32 260 42.5 254.5 57.5L267.5 73L270.5 52.5C257.5 40 266.367 24 279.5 24C292.633 24 302.5 36.5 293 52.5L300.5 71L309.5 49C297.5 31 312.589 21.9351 322.5 24C334.5 26.5 341.5 43 330 52.5L334.5 68L347 56.5C344.5 38.5 357.5 32.5 370.5 40C379.5 47 379.694 60.6457 363.5 69C360.5 128.5 355.016 145.125 341 150.02C360 146.5 370.5 174 350.5 179.02Z" stroke="black" stroke-width="5"/>
<path d="M556.5 179.02H456.5C441.5 177 440.5 154.5 456.5 151C407 109.5 434 49 478 60.5L490 64L496.5 60.5V51H485V37.5H496.5V21H515.5V37.5H528.5V52.5H515.5V60.5L523 64L534.5 59.5C590 56.5 603 116.5 556.5 151C572 151 572 179.02 556.5 179.02Z" stroke="black" stroke-width="5"/>
</svg>
