<svg width="200" height="200" viewBox="0 0 200 200" fill="none" xmlns="http://www.w3.org/2000/svg">
<path d="M-848.01 179.02H-944.01C-961 179.02 -962.501 148.516 -938.01 150.02C-921.082 133.811 -916.424 123.986 -917.01 106.02C-933.242 94.5501 -938.163 85.7097 -938.01 65.0234C-937.84 42.0234 -920 25.0234 -897.01 25.0234C-876.01 25.0156 -853.01 41.0156 -853.01 65.0234C-854.328 87.7065 -863 99.0156 -876.01 106.016C-872.528 125.524 -868.049 135.334 -855.01 150.02C-831 148.016 -830.501 179.02 -848.01 179.02Z" fill="white"/>
<path d="M-737.001 150.02V106.016C-755.967 107.005 -761.29 103.4 -762.501 91.0156V37.0156C-759.957 31.882 -758.045 29.814 -753.501 28.0156H-734.001C-728.513 30.8314 -726.9 32.8424 -726.001 37.0156V54.5156H-719.001V37.0156C-717.673 32.0027 -715.641 30.0693 -710.001 28.0156H-693.501C-687.169 29.447 -684.447 31.2485 -681.001 37.0156V54.5156H-674.001V37.0156C-672.078 31.415 -669.797 29.6838 -664.501 28.0156H-647.501C-641.638 29.0855 -639.059 30.7897 -636.501 37.0156V91.0156C-636.527 103.169 -642.425 106.025 -662.001 106.02V150.02C-636.501 145.516 -634.001 179.02 -652.001 179.02H-747.501C-762.501 179.02 -765.001 145.516 -737.001 150.02Z" fill="white"/>
<path d="M-439 179.02H-545.5C-557 180.508 -562.5 150.02 -538 150.02L-499 97.5078L-522.5 111.008C-545.5 116.508 -558 107.508 -552.5 84.0078L-529 50.0078C-526.937 47.1409 -527.047 44.8966 -529 40.0078L-531.5 32.0078C-532.556 27.6769 -531.537 26.254 -527.5 25.0156H-483.5C-435.605 40.777 -427.184 67.1405 -442 150.02C-429 152.008 -426.5 176.008 -439 179.02Z" fill="white"/>
<path d="M-249.5 179.02H-349.5C-364 176.5 -361 147 -340.5 150.02C-342 134.5 -372 118 -315 61.0078C-320.117 53.3588 -321.132 48.751 -320.5 40C-319.669 28.5 -308.5 20.5 -299 20.5C-287.086 21.4723 -277 27.5 -275.5 40C-275.428 50.2012 -276.564 55.0214 -281.5 61.0078C-275.688 65.2905 -271.026 71.6554 -266 79.0078L-297 112.508L-295 115.008L-263 82.5078C-242 102.5 -244.5 139 -258.5 150.02C-237.5 144 -230 179.02 -249.5 179.02Z" fill="white"/>
<path d="M-49.5 179.02H-149.5C-167.5 177 -164 145.5 -139.5 150.02C-150.965 143.145 -158 138 -161.5 71C-177.395 61.5884 -182 49 -170 38.5C-159 32 -140 42.5 -145.5 57.5L-132.5 73L-129.5 52.5C-142.5 40 -133.633 24 -120.5 24C-107.367 24 -97.5 36.5 -107 52.5L-99.5 71L-90.5 49C-102.5 31 -87.4114 21.9351 -77.5 24C-65.5 26.5 -58.5 43 -70 52.5L-65.5 68L-53 56.5C-55.5 38.5 -42.5 32.5 -29.5 40C-20.5 47 -20.3065 60.6457 -36.5 69C-39.5 128.5 -44.9843 145.125 -59 150.02C-40 146.5 -29.5 174 -49.5 179.02Z" fill="white"/>
<path d="M156.5 179.02H56.5C41.5 177 40.5 154.5 56.5 151C7 109.5 34 49 78 60.5L90 64L96.5 60.5V51H85V37.5H96.5V21H115.5V37.5H128.5V52.5H115.5V60.5L123 64L134.5 59.5C190 56.5 203 116.5 156.5 151C172 151 172 179.02 156.5 179.02Z" fill="white"/>
<path d="M-848.01 179.02H-944.01C-961 179.02 -962.501 148.516 -938.01 150.02C-921.082 133.811 -916.424 123.986 -917.01 106.02C-933.242 94.5501 -938.163 85.7097 -938.01 65.0234C-937.84 42.0234 -920 25.0234 -897.01 25.0234C-876.01 25.0156 -853.01 41.0156 -853.01 65.0234C-854.328 87.7065 -863 99.0156 -876.01 106.016C-872.528 125.524 -868.049 135.334 -855.01 150.02C-831 148.016 -830.501 179.02 -848.01 179.02Z" stroke="black" stroke-width="5"/>
<path d="M-737.001 150.02V106.016C-755.967 107.005 -761.29 103.4 -762.501 91.0156V37.0156C-759.957 31.882 -758.045 29.814 -753.501 28.0156H-734.001C-728.513 30.8314 -726.9 32.8424 -726.001 37.0156V54.5156H-719.001V37.0156C-717.673 32.0027 -715.641 30.0693 -710.001 28.0156H-693.501C-687.169 29.447 -684.447 31.2485 -681.001 37.0156V54.5156H-674.001V37.0156C-672.078 31.415 -669.797 29.6838 -664.501 28.0156H-647.501C-641.638 29.0855 -639.059 30.7897 -636.501 37.0156V91.0156C-636.527 103.169 -642.425 106.025 -662.001 106.02V150.02C-636.501 145.516 -634.001 179.02 -652.001 179.02H-747.501C-762.501 179.02 -765.001 145.516 -737.001 150.02Z" stroke="black" stroke-width="5"/>
<path d="M-439 179.02H-545.5C-557 180.508 -562.5 150.02 -538 150.02L-499 97.5078L-522.5 111.008C-545.5 116.508 -558 107.508 -552.5 84.0078L-529 50.0078C-526.937 47.1409 -527.047 44.8966 -529 40.0078L-531.5 32.0078C-532.556 27.6769 -531.537 26.254 -527.5 25.0156H-483.5C-435.605 40.777 -427.184 67.1405 -442 150.02C-429 152.008 -426.5 176.008 -439 179.02Z" stroke="black" stroke-width="5"/>
<path d="M-249.5 179.02H-349.5C-364 176.5 -361 147 -340.5 150.02C-342 134.5 -372 118 -315 61.0078C-320.117 53.3588 -321.132 48.751 -320.5 40C-319.669 28.5 -308.5 20.5 -299 20.5C-287.086 21.4723 -277 27.5 -275.5 40C-275.428 50.2012 -276.564 55.0214 -281.5 61.0078C-275.688 65.2905 -271.026 71.6554 -266 79.0078L-297 112.508L-295 115.008L-263 82.5078C-242 102.5 -244.5 139 -258.5 150.02C-237.5 144 -230 179.02 -249.5 179.02Z" stroke="black" stroke-width="5"/>
<path d="M-49.5 179.02H-149.5C-167.5 177 -164 145.5 -139.5 150.02C-150.965 143.145 -158 138 -161.5 71C-177.395 61.5884 -182 49 -170 38.5C-159 32 -140 42.5 -145.5 57.5L-132.5 73L-129.5 52.5C-142.5 40 -133.633 24 -120.5 24C-107.367 24 -97.5 36.5 -107 52.5L-99.5 71L-90.5 49C-102.5 31 -87.4114 21.9351 -77.5 24C-65.5 26.5 -58.5 43 -70 52.5L-65.5 68L-53 56.5C-55.5 38.5 -42.5 32.5 -29.5 40C-20.5 47 -20.3065 60.6457 -36.5 69C-39.5 128.5 -44.9843 145.125 -59 150.02C-40 146.5 -29.5 174 -49.5 179.02Z" stroke="black" stroke-width="5"/>
<path d="M156.5 179.02H56.5C41.5 177 40.5 154.5 56.5 151C7 109.5 34 49 78 60.5L90 64L96.5 60.5V51H85V37.5H96.5V21H115.5V37.5H128.5V52.5H115.5V60.5L123 64L134.5 59.5C190 56.5 203 116.5 156.5 151C172 151 172 179.02 156.5 179.02Z" stroke="black" stroke-width="5"/>
</svg>
