<svg width="200" height="200" viewBox="0 0 200 200" fill="none" xmlns="http://www.w3.org/2000/svg">
<path d="M-248.01 179.02H-344.01C-361 179.02 -362.501 148.516 -338.01 150.02C-321.082 133.811 -316.424 123.986 -317.01 106.02C-333.242 94.5501 -338.163 85.7097 -338.01 65.0234C-337.84 42.0234 -320 25.0234 -297.01 25.0234C-276.01 25.0156 -253.01 41.0156 -253.01 65.0234C-254.328 87.7065 -263 99.0156 -276.01 106.016C-272.528 125.524 -268.049 135.334 -255.01 150.02C-231 148.016 -230.501 179.02 -248.01 179.02Z" fill="white"/>
<path d="M-137.001 150.02V106.016C-155.967 107.005 -161.29 103.4 -162.501 91.0156V37.0156C-159.957 31.882 -158.045 29.814 -153.501 28.0156H-134.001C-128.513 30.8314 -126.9 32.8424 -126.001 37.0156V54.5156H-119.001V37.0156C-117.673 32.0027 -115.641 30.0693 -110.001 28.0156H-93.5007C-87.1686 29.447 -84.4468 31.2485 -81.0007 37.0156V54.5156H-74.0007V37.0156C-72.0778 31.415 -69.7973 29.6838 -64.5007 28.0156H-47.5007C-41.638 29.0855 -39.0587 30.7897 -36.5007 37.0156V91.0156C-36.5266 103.169 -42.4247 106.025 -62.0007 106.02V150.02C-36.5007 145.516 -34.0007 179.02 -52.0007 179.02H-147.501C-162.501 179.02 -165.001 145.516 -137.001 150.02Z" fill="white"/>
<path d="M161 179.02H54.4998C43 180.508 37.5 150.02 62 150.02L101 97.5078L77.5 111.008C54.4998 116.508 42 107.508 47.5 84.0078L71 50.0078C73.0628 47.1409 72.9531 44.8966 71 40.0078L68.5 32.0078C67.4444 27.6769 68.463 26.254 72.5 25.0156H116.5C164.395 40.777 172.816 67.1405 158 150.02C171 152.008 173.5 176.008 161 179.02Z" fill="white"/>
<path d="M350.5 179.02H250.5C236 176.5 239 147 259.5 150.02C258 134.5 228 118 285 61.0078C279.883 53.3588 278.868 48.751 279.5 40C280.331 28.5 291.5 20.5 301 20.5C312.914 21.4723 323 27.5 324.5 40C324.572 50.2012 323.436 55.0214 318.5 61.0078C324.312 65.2905 328.974 71.6554 334 79.0078L303 112.508L305 115.008L337 82.5078C358 102.5 355.5 139 341.5 150.02C362.5 144 370 179.02 350.5 179.02Z" fill="white"/>
<path d="M550.5 179.02H450.5C432.5 177 436 145.5 460.5 150.02C449.035 143.145 442 138 438.5 71C422.605 61.5884 418 49 430 38.5C441 32 460 42.5 454.5 57.5L467.5 73L470.5 52.5C457.5 40 466.367 24 479.5 24C492.633 24 502.5 36.5 493 52.5L500.5 71L509.5 49C497.5 31 512.589 21.9351 522.5 24C534.5 26.5 541.5 43 530 52.5L534.5 68L547 56.5C544.5 38.5 557.5 32.5 570.5 40C579.5 47 579.694 60.6457 563.5 69C560.5 128.5 555.016 145.125 541 150.02C560 146.5 570.5 174 550.5 179.02Z" fill="white"/>
<path d="M756.5 179.02H656.5C641.5 177 640.5 154.5 656.5 151C607 109.5 634 49 678 60.5L690 64L696.5 60.5V51H685V37.5H696.5V21H715.5V37.5H728.5V52.5H715.5V60.5L723 64L734.5 59.5C790 56.5 803 116.5 756.5 151C772 151 772 179.02 756.5 179.02Z" fill="white"/>
<path d="M-248.01 179.02H-344.01C-361 179.02 -362.501 148.516 -338.01 150.02C-321.082 133.811 -316.424 123.986 -317.01 106.02C-333.242 94.5501 -338.163 85.7097 -338.01 65.0234C-337.84 42.0234 -320 25.0234 -297.01 25.0234C-276.01 25.0156 -253.01 41.0156 -253.01 65.0234C-254.328 87.7065 -263 99.0156 -276.01 106.016C-272.528 125.524 -268.049 135.334 -255.01 150.02C-231 148.016 -230.501 179.02 -248.01 179.02Z" stroke="black" stroke-width="5"/>
<path d="M-137.001 150.02V106.016C-155.967 107.005 -161.29 103.4 -162.501 91.0156V37.0156C-159.957 31.882 -158.045 29.814 -153.501 28.0156H-134.001C-128.513 30.8314 -126.9 32.8424 -126.001 37.0156V54.5156H-119.001V37.0156C-117.673 32.0027 -115.641 30.0693 -110.001 28.0156H-93.5007C-87.1686 29.447 -84.4468 31.2485 -81.0007 37.0156V54.5156H-74.0007V37.0156C-72.0778 31.415 -69.7973 29.6838 -64.5007 28.0156H-47.5007C-41.638 29.0855 -39.0587 30.7897 -36.5007 37.0156V91.0156C-36.5266 103.169 -42.4247 106.025 -62.0007 106.02V150.02C-36.5007 145.516 -34.0007 179.02 -52.0007 179.02H-147.501C-162.501 179.02 -165.001 145.516 -137.001 150.02Z" stroke="black" stroke-width="5"/>
<path d="M161 179.02H54.4998C43 180.508 37.5 150.02 62 150.02L101 97.5078L77.5 111.008C54.4998 116.508 42 107.508 47.5 84.0078L71 50.0078C73.0628 47.1409 72.9531 44.8966 71 40.0078L68.5 32.0078C67.4444 27.6769 68.463 26.254 72.5 25.0156H116.5C164.395 40.777 172.816 67.1405 158 150.02C171 152.008 173.5 176.008 161 179.02Z" stroke="black" stroke-width="5"/>
<path d="M350.5 179.02H250.5C236 176.5 239 147 259.5 150.02C258 134.5 228 118 285 61.0078C279.883 53.3588 278.868 48.751 279.5 40C280.331 28.5 291.5 20.5 301 20.5C312.914 21.4723 323 27.5 324.5 40C324.572 50.2012 323.436 55.0214 318.5 61.0078C324.312 65.2905 328.974 71.6554 334 79.0078L303 112.508L305 115.008L337 82.5078C358 102.5 355.5 139 341.5 150.02C362.5 144 370 179.02 350.5 179.02Z" stroke="black" stroke-width="5"/>
<path d="M550.5 179.02H450.5C432.5 177 436 145.5 460.5 150.02C449.035 143.145 442 138 438.5 71C422.605 61.5884 418 49 430 38.5C441 32 460 42.5 454.5 57.5L467.5 73L470.5 52.5C457.5 40 466.367 24 479.5 24C492.633 24 502.5 36.5 493 52.5L500.5 71L509.5 49C497.5 31 512.589 21.9351 522.5 24C534.5 26.5 541.5 43 530 52.5L534.5 68L547 56.5C544.5 38.5 557.5 32.5 570.5 40C579.5 47 579.694 60.6457 563.5 69C560.5 128.5 555.016 145.125 541 150.02C560 146.5 570.5 174 550.5 179.02Z" stroke="black" stroke-width="5"/>
<path d="M756.5 179.02H656.5C641.5 177 640.5 154.5 656.5 151C607 109.5 634 49 678 60.5L690 64L696.5 60.5V51H685V37.5H696.5V21H715.5V37.5H728.5V52.5H715.5V60.5L723 64L734.5 59.5C790 56.5 803 116.5 756.5 151C772 151 772 179.02 756.5 179.02Z" stroke="black" stroke-width="5"/>
</svg>
