<svg width="200" height="200" viewBox="0 0 200 200" fill="none" xmlns="http://www.w3.org/2000/svg">
<path d="M151.99 179.02H55.9899C38.9998 179.02 37.4993 148.516 61.9899 150.02C78.9181 133.811 83.5758 123.986 82.9899 106.02C66.7576 94.5501 61.8371 85.7097 61.9899 65.0234C62.1597 42.0234 79.9995 25.0234 102.99 25.0234C123.99 25.0156 146.99 41.0156 146.99 65.0234C145.672 87.7065 137 99.0156 123.99 106.016C127.472 125.524 131.951 135.334 144.99 150.02C169 148.016 169.499 179.02 151.99 179.02Z" fill="white"/>
<path d="M262.999 150.02V106.016C244.033 107.005 238.71 103.4 237.499 91.0156V37.0156C240.043 31.882 241.955 29.814 246.499 28.0156H265.999C271.487 30.8314 273.1 32.8424 273.999 37.0156V54.5156H280.999V37.0156C282.327 32.0027 284.359 30.0693 289.999 28.0156H306.499C312.831 29.447 315.553 31.2485 318.999 37.0156V54.5156H325.999V37.0156C327.922 31.415 330.203 29.6838 335.499 28.0156H352.499C358.362 29.0855 360.941 30.7897 363.499 37.0156V91.0156C363.473 103.169 357.575 106.025 337.999 106.02V150.02C363.499 145.516 365.999 179.02 347.999 179.02H252.499C237.499 179.02 234.999 145.516 262.999 150.02Z" fill="white"/>
<path d="M561 179.02H454.5C443 180.508 437.5 150.02 462 150.02L501 97.5078L477.5 111.008C454.5 116.508 442 107.508 447.5 84.0078L471 50.0078C473.063 47.1409 472.953 44.8966 471 40.0078L468.5 32.0078C467.444 27.6769 468.463 26.254 472.5 25.0156H516.5C564.395 40.777 572.816 67.1405 558 150.02C571 152.008 573.5 176.008 561 179.02Z" fill="white"/>
<path d="M750.5 179.02H650.5C636 176.5 639 147 659.5 150.02C658 134.5 628 118 685 61.0078C679.883 53.3588 678.868 48.751 679.5 40C680.331 28.5 691.5 20.5 701 20.5C712.914 21.4723 723 27.5 724.5 40C724.572 50.2012 723.436 55.0214 718.5 61.0078C724.312 65.2905 728.974 71.6554 734 79.0078L703 112.508L705 115.008L737 82.5078C758 102.5 755.5 139 741.5 150.02C762.5 144 770 179.02 750.5 179.02Z" fill="white"/>
<path d="M950.5 179.02H850.5C832.5 177 836 145.5 860.5 150.02C849.035 143.145 842 138 838.5 71C822.605 61.5884 818 49 830 38.5C841 32 860 42.5 854.5 57.5L867.5 73L870.5 52.5C857.5 40 866.367 24 879.5 24C892.633 24 902.5 36.5 893 52.5L900.5 71L909.5 49C897.5 31 912.589 21.9351 922.5 24C934.5 26.5 941.5 43 930 52.5L934.5 68L947 56.5C944.5 38.5 957.5 32.5 970.5 40C979.5 47 979.694 60.6457 963.5 69C960.5 128.5 955.016 145.125 941 150.02C960 146.5 970.5 174 950.5 179.02Z" fill="white"/>
<path d="M1156.5 179.02H1056.5C1041.5 177 1040.5 154.5 1056.5 151C1007 109.5 1034 49 1078 60.5L1090 64L1096.5 60.5V51H1085V37.5H1096.5V21H1115.5V37.5H1128.5V52.5H1115.5V60.5L1123 64L1134.5 59.5C1190 56.5 1203 116.5 1156.5 151C1172 151 1172 179.02 1156.5 179.02Z" fill="white"/>
<path d="M151.99 179.02H55.9899C38.9998 179.02 37.4993 148.516 61.9899 150.02C78.9181 133.811 83.5758 123.986 82.9899 106.02C66.7576 94.5501 61.8371 85.7097 61.9899 65.0234C62.1597 42.0234 79.9995 25.0234 102.99 25.0234C123.99 25.0156 146.99 41.0156 146.99 65.0234C145.672 87.7065 137 99.0156 123.99 106.016C127.472 125.524 131.951 135.334 144.99 150.02C169 148.016 169.499 179.02 151.99 179.02Z" stroke="black" stroke-width="5"/>
<path d="M262.999 150.02V106.016C244.033 107.005 238.71 103.4 237.499 91.0156V37.0156C240.043 31.882 241.955 29.814 246.499 28.0156H265.999C271.487 30.8314 273.1 32.8424 273.999 37.0156V54.5156H280.999V37.0156C282.327 32.0027 284.359 30.0693 289.999 28.0156H306.499C312.831 29.447 315.553 31.2485 318.999 37.0156V54.5156H325.999V37.0156C327.922 31.415 330.203 29.6838 335.499 28.0156H352.499C358.362 29.0855 360.941 30.7897 363.499 37.0156V91.0156C363.473 103.169 357.575 106.025 337.999 106.02V150.02C363.499 145.516 365.999 179.02 347.999 179.02H252.499C237.499 179.02 234.999 145.516 262.999 150.02Z" stroke="black" stroke-width="5"/>
<path d="M561 179.02H454.5C443 180.508 437.5 150.02 462 150.02L501 97.5078L477.5 111.008C454.5 116.508 442 107.508 447.5 84.0078L471 50.0078C473.063 47.1409 472.953 44.8966 471 40.0078L468.5 32.0078C467.444 27.6769 468.463 26.254 472.5 25.0156H516.5C564.395 40.777 572.816 67.1405 558 150.02C571 152.008 573.5 176.008 561 179.02Z" stroke="black" stroke-width="5"/>
<path d="M750.5 179.02H650.5C636 176.5 639 147 659.5 150.02C658 134.5 628 118 685 61.0078C679.883 53.3588 678.868 48.751 679.5 40C680.331 28.5 691.5 20.5 701 20.5C712.914 21.4723 723 27.5 724.5 40C724.572 50.2012 723.436 55.0214 718.5 61.0078C724.312 65.2905 728.974 71.6554 734 79.0078L703 112.508L705 115.008L737 82.5078C758 102.5 755.5 139 741.5 150.02C762.5 144 770 179.02 750.5 179.02Z" stroke="black" stroke-width="5"/>
<path d="M950.5 179.02H850.5C832.5 177 836 145.5 860.5 150.02C849.035 143.145 842 138 838.5 71C822.605 61.5884 818 49 830 38.5C841 32 860 42.5 854.5 57.5L867.5 73L870.5 52.5C857.5 40 866.367 24 879.5 24C892.633 24 902.5 36.5 893 52.5L900.5 71L909.5 49C897.5 31 912.589 21.9351 922.5 24C934.5 26.5 941.5 43 930 52.5L934.5 68L947 56.5C944.5 38.5 957.5 32.5 970.5 40C979.5 47 979.694 60.6457 963.5 69C960.5 128.5 955.016 145.125 941 150.02C960 146.5 970.5 174 950.5 179.02Z" stroke="black" stroke-width="5"/>
<path d="M1156.5 179.02H1056.5C1041.5 177 1040.5 154.5 1056.5 151C1007 109.5 1034 49 1078 60.5L1090 64L1096.5 60.5V51H1085V37.5H1096.5V21H1115.5V37.5H1128.5V52.5H1115.5V60.5L1123 64L1134.5 59.5C1190 56.5 1203 116.5 1156.5 151C1172 151 1172 179.02 1156.5 179.02Z" stroke="black" stroke-width="5"/>
</svg>
