<svg width="200" height="200" viewBox="0 0 200 200" fill="none" xmlns="http://www.w3.org/2000/svg">
<path d="M-648.01 179.02H-744.01C-761 179.02 -762.501 148.516 -738.01 150.02C-721.082 133.811 -716.424 123.986 -717.01 106.02C-733.242 94.5501 -738.163 85.7097 -738.01 65.0234C-737.84 42.0234 -720 25.0234 -697.01 25.0234C-676.01 25.0156 -653.01 41.0156 -653.01 65.0234C-654.328 87.7065 -663 99.0156 -676.01 106.016C-672.528 125.524 -668.049 135.334 -655.01 150.02C-631 148.016 -630.501 179.02 -648.01 179.02Z" fill="white"/>
<path d="M-537.001 150.02V106.016C-555.967 107.005 -561.29 103.4 -562.501 91.0156V37.0156C-559.957 31.882 -558.045 29.814 -553.501 28.0156H-534.001C-528.513 30.8314 -526.9 32.8424 -526.001 37.0156V54.5156H-519.001V37.0156C-517.673 32.0027 -515.641 30.0693 -510.001 28.0156H-493.501C-487.169 29.447 -484.447 31.2485 -481.001 37.0156V54.5156H-474.001V37.0156C-472.078 31.415 -469.797 29.6838 -464.501 28.0156H-447.501C-441.638 29.0855 -439.059 30.7897 -436.501 37.0156V91.0156C-436.527 103.169 -442.425 106.025 -462.001 106.02V150.02C-436.501 145.516 -434.001 179.02 -452.001 179.02H-547.501C-562.501 179.02 -565.001 145.516 -537.001 150.02Z" fill="white"/>
<path d="M-239 179.02H-345.5C-357 180.508 -362.5 150.02 -338 150.02L-299 97.5078L-322.5 111.008C-345.5 116.508 -358 107.508 -352.5 84.0078L-329 50.0078C-326.937 47.1409 -327.047 44.8966 -329 40.0078L-331.5 32.0078C-332.556 27.6769 -331.537 26.254 -327.5 25.0156H-283.5C-235.605 40.777 -227.184 67.1405 -242 150.02C-229 152.008 -226.5 176.008 -239 179.02Z" fill="white"/>
<path d="M-49.5 179.02H-149.5C-164 176.5 -161 147 -140.5 150.02C-142 134.5 -172 118 -115 61.0078C-120.117 53.3588 -121.132 48.751 -120.5 40C-119.669 28.5 -108.5 20.5 -99 20.5C-87.0863 21.4723 -77 27.5 -75.5 40C-75.4279 50.2012 -76.5642 55.0214 -81.5 61.0078C-75.6879 65.2905 -71.0259 71.6554 -66 79.0078L-97 112.508L-95 115.008L-63 82.5078C-42 102.5 -44.5 139 -58.5 150.02C-37.5 144 -30 179.02 -49.5 179.02Z" fill="white"/>
<path d="M150.5 179.02H50.5C32.5 177 36 145.5 60.5 150.02C49.0349 143.145 42 138 38.5 71C22.6049 61.5884 18 49 30 38.5C41 32 60 42.5 54.5 57.5L67.5 73L70.5 52.5C57.5 40 66.3672 24 79.5 24C92.6328 24 102.5 36.5 93 52.5L100.5 71L109.5 49C97.5 31 112.589 21.9351 122.5 24C134.5 26.5 141.5 43 130 52.5L134.5 68L147 56.5C144.5 38.5 157.5 32.5 170.5 40C179.5 47 179.694 60.6457 163.5 69C160.5 128.5 155.016 145.125 141 150.02C160 146.5 170.5 174 150.5 179.02Z" fill="white"/>
<path d="M356.5 179.02H256.5C241.5 177 240.5 154.5 256.5 151C207 109.5 234 49 278 60.5L290 64L296.5 60.5V51H285V37.5H296.5V21H315.5V37.5H328.5V52.5H315.5V60.5L323 64L334.5 59.5C390 56.5 403 116.5 356.5 151C372 151 372 179.02 356.5 179.02Z" fill="white"/>
<path d="M-648.01 179.02H-744.01C-761 179.02 -762.501 148.516 -738.01 150.02C-721.082 133.811 -716.424 123.986 -717.01 106.02C-733.242 94.5501 -738.163 85.7097 -738.01 65.0234C-737.84 42.0234 -720 25.0234 -697.01 25.0234C-676.01 25.0156 -653.01 41.0156 -653.01 65.0234C-654.328 87.7065 -663 99.0156 -676.01 106.016C-672.528 125.524 -668.049 135.334 -655.01 150.02C-631 148.016 -630.501 179.02 -648.01 179.02Z" stroke="black" stroke-width="5"/>
<path d="M-537.001 150.02V106.016C-555.967 107.005 -561.29 103.4 -562.501 91.0156V37.0156C-559.957 31.882 -558.045 29.814 -553.501 28.0156H-534.001C-528.513 30.8314 -526.9 32.8424 -526.001 37.0156V54.5156H-519.001V37.0156C-517.673 32.0027 -515.641 30.0693 -510.001 28.0156H-493.501C-487.169 29.447 -484.447 31.2485 -481.001 37.0156V54.5156H-474.001V37.0156C-472.078 31.415 -469.797 29.6838 -464.501 28.0156H-447.501C-441.638 29.0855 -439.059 30.7897 -436.501 37.0156V91.0156C-436.527 103.169 -442.425 106.025 -462.001 106.02V150.02C-436.501 145.516 -434.001 179.02 -452.001 179.02H-547.501C-562.501 179.02 -565.001 145.516 -537.001 150.02Z" stroke="black" stroke-width="5"/>
<path d="M-239 179.02H-345.5C-357 180.508 -362.5 150.02 -338 150.02L-299 97.5078L-322.5 111.008C-345.5 116.508 -358 107.508 -352.5 84.0078L-329 50.0078C-326.937 47.1409 -327.047 44.8966 -329 40.0078L-331.5 32.0078C-332.556 27.6769 -331.537 26.254 -327.5 25.0156H-283.5C-235.605 40.777 -227.184 67.1405 -242 150.02C-229 152.008 -226.5 176.008 -239 179.02Z" stroke="black" stroke-width="5"/>
<path d="M-49.5 179.02H-149.5C-164 176.5 -161 147 -140.5 150.02C-142 134.5 -172 118 -115 61.0078C-120.117 53.3588 -121.132 48.751 -120.5 40C-119.669 28.5 -108.5 20.5 -99 20.5C-87.0863 21.4723 -77 27.5 -75.5 40C-75.4279 50.2012 -76.5642 55.0214 -81.5 61.0078C-75.6879 65.2905 -71.0259 71.6554 -66 79.0078L-97 112.508L-95 115.008L-63 82.5078C-42 102.5 -44.5 139 -58.5 150.02C-37.5 144 -30 179.02 -49.5 179.02Z" stroke="black" stroke-width="5"/>
<path d="M150.5 179.02H50.5C32.5 177 36 145.5 60.5 150.02C49.0349 143.145 42 138 38.5 71C22.6049 61.5884 18 49 30 38.5C41 32 60 42.5 54.5 57.5L67.5 73L70.5 52.5C57.5 40 66.3672 24 79.5 24C92.6328 24 102.5 36.5 93 52.5L100.5 71L109.5 49C97.5 31 112.589 21.9351 122.5 24C134.5 26.5 141.5 43 130 52.5L134.5 68L147 56.5C144.5 38.5 157.5 32.5 170.5 40C179.5 47 179.694 60.6457 163.5 69C160.5 128.5 155.016 145.125 141 150.02C160 146.5 170.5 174 150.5 179.02Z" stroke="black" stroke-width="5"/>
<path d="M356.5 179.02H256.5C241.5 177 240.5 154.5 256.5 151C207 109.5 234 49 278 60.5L290 64L296.5 60.5V51H285V37.5H296.5V21H315.5V37.5H328.5V52.5H315.5V60.5L323 64L334.5 59.5C390 56.5 403 116.5 356.5 151C372 151 372 179.02 356.5 179.02Z" stroke="black" stroke-width="5"/>
</svg>
