<svg width="200" height="200" viewBox="0 0 200 200" fill="none" xmlns="http://www.w3.org/2000/svg">
<path d="M-48.0101 179.02H-144.01C-161 179.02 -162.501 148.516 -138.01 150.02C-121.082 133.811 -116.424 123.986 -117.01 106.02C-133.242 94.5501 -138.163 85.7097 -138.01 65.0234C-137.84 42.0234 -120 25.0234 -97.0101 25.0234C-76.0101 25.0156 -53.0101 41.0156 -53.0101 65.0234C-54.3281 87.7065 -63.0005 99.0156 -76.0101 106.016C-72.528 125.524 -68.0495 135.334 -55.0101 150.02C-31.0002 148.016 -30.5014 179.02 -48.0101 179.02Z" fill="white"/>
<path d="M62.9993 150.02V106.016C44.033 107.005 38.7103 103.4 37.4993 91.0156V37.0156C40.0426 31.882 41.9545 29.814 46.4993 28.0156H65.9993C71.4868 30.8314 73.0995 32.8424 73.9993 37.0156V54.5156H80.9993V37.0156C82.3269 32.0027 84.3589 30.0693 89.9993 28.0156H106.499C112.831 29.447 115.553 31.2485 118.999 37.0156V54.5156H125.999V37.0156C127.922 31.415 130.203 29.6838 135.499 28.0156H152.499C158.362 29.0855 160.941 30.7897 163.499 37.0156V91.0156C163.473 103.169 157.575 106.025 137.999 106.02V150.02C163.499 145.516 165.999 179.02 147.999 179.02H52.4993C37.4993 179.02 34.9993 145.516 62.9993 150.02Z" fill="white"/>
<path d="M361 179.02H254.5C243 180.508 237.5 150.02 262 150.02L301 97.5078L277.5 111.008C254.5 116.508 242 107.508 247.5 84.0078L271 50.0078C273.063 47.1409 272.953 44.8966 271 40.0078L268.5 32.0078C267.444 27.6769 268.463 26.254 272.5 25.0156H316.5C364.395 40.777 372.816 67.1405 358 150.02C371 152.008 373.5 176.008 361 179.02Z" fill="white"/>
<path d="M550.5 179.02H450.5C436 176.5 439 147 459.5 150.02C458 134.5 428 118 485 61.0078C479.883 53.3588 478.868 48.751 479.5 40C480.331 28.5 491.5 20.5 501 20.5C512.914 21.4723 523 27.5 524.5 40C524.572 50.2012 523.436 55.0214 518.5 61.0078C524.312 65.2905 528.974 71.6554 534 79.0078L503 112.508L505 115.008L537 82.5078C558 102.5 555.5 139 541.5 150.02C562.5 144 570 179.02 550.5 179.02Z" fill="white"/>
<path d="M750.5 179.02H650.5C632.5 177 636 145.5 660.5 150.02C649.035 143.145 642 138 638.5 71C622.605 61.5884 618 49 630 38.5C641 32 660 42.5 654.5 57.5L667.5 73L670.5 52.5C657.5 40 666.367 24 679.5 24C692.633 24 702.5 36.5 693 52.5L700.5 71L709.5 49C697.5 31 712.589 21.9351 722.5 24C734.5 26.5 741.5 43 730 52.5L734.5 68L747 56.5C744.5 38.5 757.5 32.5 770.5 40C779.5 47 779.694 60.6457 763.5 69C760.5 128.5 755.016 145.125 741 150.02C760 146.5 770.5 174 750.5 179.02Z" fill="white"/>
<path d="M956.5 179.02H856.5C841.5 177 840.5 154.5 856.5 151C807 109.5 834 49 878 60.5L890 64L896.5 60.5V51H885V37.5H896.5V21H915.5V37.5H928.5V52.5H915.5V60.5L923 64L934.5 59.5C990 56.5 1003 116.5 956.5 151C972 151 972 179.02 956.5 179.02Z" fill="white"/>
<path d="M-48.0101 179.02H-144.01C-161 179.02 -162.501 148.516 -138.01 150.02C-121.082 133.811 -116.424 123.986 -117.01 106.02C-133.242 94.5501 -138.163 85.7097 -138.01 65.0234C-137.84 42.0234 -120 25.0234 -97.0101 25.0234C-76.0101 25.0156 -53.0101 41.0156 -53.0101 65.0234C-54.3281 87.7065 -63.0005 99.0156 -76.0101 106.016C-72.528 125.524 -68.0495 135.334 -55.0101 150.02C-31.0002 148.016 -30.5014 179.02 -48.0101 179.02Z" stroke="black" stroke-width="5"/>
<path d="M62.9993 150.02V106.016C44.033 107.005 38.7103 103.4 37.4993 91.0156V37.0156C40.0426 31.882 41.9545 29.814 46.4993 28.0156H65.9993C71.4868 30.8314 73.0995 32.8424 73.9993 37.0156V54.5156H80.9993V37.0156C82.3269 32.0027 84.3589 30.0693 89.9993 28.0156H106.499C112.831 29.447 115.553 31.2485 118.999 37.0156V54.5156H125.999V37.0156C127.922 31.415 130.203 29.6838 135.499 28.0156H152.499C158.362 29.0855 160.941 30.7897 163.499 37.0156V91.0156C163.473 103.169 157.575 106.025 137.999 106.02V150.02C163.499 145.516 165.999 179.02 147.999 179.02H52.4993C37.4993 179.02 34.9993 145.516 62.9993 150.02Z" stroke="black" stroke-width="5"/>
<path d="M361 179.02H254.5C243 180.508 237.5 150.02 262 150.02L301 97.5078L277.5 111.008C254.5 116.508 242 107.508 247.5 84.0078L271 50.0078C273.063 47.1409 272.953 44.8966 271 40.0078L268.5 32.0078C267.444 27.6769 268.463 26.254 272.5 25.0156H316.5C364.395 40.777 372.816 67.1405 358 150.02C371 152.008 373.5 176.008 361 179.02Z" stroke="black" stroke-width="5"/>
<path d="M550.5 179.02H450.5C436 176.5 439 147 459.5 150.02C458 134.5 428 118 485 61.0078C479.883 53.3588 478.868 48.751 479.5 40C480.331 28.5 491.5 20.5 501 20.5C512.914 21.4723 523 27.5 524.5 40C524.572 50.2012 523.436 55.0214 518.5 61.0078C524.312 65.2905 528.974 71.6554 534 79.0078L503 112.508L505 115.008L537 82.5078C558 102.5 555.5 139 541.5 150.02C562.5 144 570 179.02 550.5 179.02Z" stroke="black" stroke-width="5"/>
<path d="M750.5 179.02H650.5C632.5 177 636 145.5 660.5 150.02C649.035 143.145 642 138 638.5 71C622.605 61.5884 618 49 630 38.5C641 32 660 42.5 654.5 57.5L667.5 73L670.5 52.5C657.5 40 666.367 24 679.5 24C692.633 24 702.5 36.5 693 52.5L700.5 71L709.5 49C697.5 31 712.589 21.9351 722.5 24C734.5 26.5 741.5 43 730 52.5L734.5 68L747 56.5C744.5 38.5 757.5 32.5 770.5 40C779.5 47 779.694 60.6457 763.5 69C760.5 128.5 755.016 145.125 741 150.02C760 146.5 770.5 174 750.5 179.02Z" stroke="black" stroke-width="5"/>
<path d="M956.5 179.02H856.5C841.5 177 840.5 154.5 856.5 151C807 109.5 834 49 878 60.5L890 64L896.5 60.5V51H885V37.5H896.5V21H915.5V37.5H928.5V52.5H915.5V60.5L923 64L934.5 59.5C990 56.5 1003 116.5 956.5 151C972 151 972 179.02 956.5 179.02Z" stroke="black" stroke-width="5"/>
</svg>
